<svg width="279" height="186" viewBox="0 0 279 186" fill="none" xmlns="http://www.w3.org/2000/svg">
<g clip-path="url(#clip0_42_552)">
<path d="M100.077 107.045C109.639 90.1721 127.877 77.2167 147.184 78.4647C132.943 94.0005 124.638 114.089 123.74 135.176C123.423 143.309 123.915 152.389 118.531 158.479C115.182 162.268 110.062 164.104 105.028 164.489C99.9934 164.874 94.9603 163.961 89.9933 163.053L88.7884 163.424C88.3297 144.021 90.516 123.917 100.077 107.045Z" fill="#F0F0F0"/>
<path d="M147.213 78.871C132.936 85.7658 120.762 97.2808 113.289 111.324C111.673 114.36 110.297 117.581 109.697 120.987C109.097 124.394 109.516 127.638 110.676 130.874C111.737 133.832 113.163 136.735 113.488 139.901C113.831 143.237 112.607 146.357 110.404 148.833C107.709 151.862 104.089 153.74 100.486 155.452C96.4849 157.354 92.2992 159.265 89.4654 162.813C89.1221 163.243 88.4771 162.684 88.82 162.254C93.7502 156.081 102.19 154.92 108.042 149.947C110.773 147.626 112.823 144.466 112.693 140.763C112.58 137.525 111.112 134.53 110.012 131.544C108.858 128.408 108.282 125.255 108.696 121.913C109.12 118.493 110.373 115.211 111.904 112.147C115.357 105.236 120.083 98.8916 125.497 93.4071C131.719 87.1029 138.97 81.9129 146.937 78.0616C147.43 77.8234 147.703 78.6344 147.213 78.871Z" fill="white"/>
<path d="M115.478 106.631C113.289 105.025 111.74 102.692 111.108 100.047C110.477 97.4016 110.802 94.6173 112.028 92.191C112.278 91.7009 113.049 92.0671 112.799 92.5578C111.653 94.8151 111.35 97.4087 111.943 99.8706C112.537 102.333 113.988 104.501 116.035 105.983C116.479 106.306 115.92 106.952 115.478 106.631Z" fill="white"/>
<path d="M109.942 129.445C115.426 128.641 120.407 125.793 123.891 121.468C124.236 121.04 124.881 121.599 124.537 122.027C120.903 126.52 115.713 129.474 110.004 130.298C109.46 130.376 109.4 129.522 109.942 129.445V129.445Z" fill="white"/>
<path d="M132.14 88.1555C132.858 88.9537 133.762 89.5605 134.772 89.9215C135.781 90.2826 136.864 90.3864 137.923 90.2238C138.466 90.1387 138.525 90.9924 137.986 91.0769C136.815 91.2511 135.619 91.1349 134.503 90.7386C133.386 90.3422 132.384 89.6776 131.583 88.803C131.501 88.7269 131.45 88.6222 131.442 88.5101C131.434 88.3981 131.468 88.2871 131.539 88.1998C131.613 88.1144 131.718 88.0618 131.83 88.0536C131.943 88.0453 132.054 88.0819 132.14 88.1555Z" fill="white"/>
<path d="M185.599 131.692C185.262 131.754 184.924 131.817 184.584 131.886C180.05 132.754 175.595 133.99 171.261 135.581C170.923 135.699 170.584 135.823 170.251 135.95C159.85 139.896 150.27 145.744 141.997 153.198C138.708 156.168 135.649 159.383 132.846 162.818C128.976 167.562 125.155 173.014 120.098 176.107C119.573 176.436 119.03 176.732 118.469 176.993L89.3331 164.869C89.2806 164.809 89.2251 164.754 89.1724 164.693L87.987 164.263C88.1192 164.075 88.2604 163.884 88.3926 163.697C88.4688 163.588 88.5515 163.481 88.6278 163.372C88.6807 163.301 88.7339 163.229 88.7776 163.161C88.7951 163.137 88.8129 163.113 88.8277 163.096C88.8713 163.028 88.919 162.97 88.9599 162.909C89.7459 161.837 90.5408 160.769 91.3445 159.704C91.3473 159.697 91.3473 159.697 91.3566 159.693C97.5014 151.597 104.374 143.945 112.186 137.582C112.421 137.39 112.659 137.192 112.907 137.006C116.444 134.158 120.208 131.604 124.159 129.371C126.327 128.155 128.555 127.05 130.834 126.06C136.728 123.513 142.985 121.912 149.375 121.316C162.114 120.13 175.089 123.043 184.859 131.071C185.109 131.276 185.352 131.479 185.599 131.692Z" fill="#F0F0F0"/>
<path d="M185.38 132.035C169.843 128.917 153.212 130.759 138.816 137.458C135.704 138.906 132.672 140.647 130.149 143.004C127.625 145.362 126.013 148.205 124.997 151.489C124.068 154.492 123.465 157.671 121.825 160.395C120.096 163.266 117.246 165.018 114.001 165.665C110.031 166.456 106.014 165.768 102.109 164.959C97.7737 164.061 93.2845 163.059 88.8921 164.181C88.3599 164.317 88.1808 163.48 88.7122 163.345C96.3541 161.393 103.789 165.563 111.447 165.127C115.02 164.923 118.554 163.638 120.673 160.604C122.526 157.95 123.151 154.672 124.065 151.623C125.025 148.423 126.457 145.558 128.794 143.138C131.185 140.664 134.155 138.8 137.217 137.279C144.122 133.846 151.703 131.635 159.317 130.526C168.069 129.25 176.973 129.486 185.646 131.222C186.183 131.33 185.914 132.142 185.38 132.035V132.035Z" fill="white"/>
<path d="M143.381 135.033C142.597 132.429 142.761 129.63 143.844 127.137C144.927 124.643 146.858 122.617 149.293 121.42C149.786 121.179 150.182 121.937 149.688 122.178C147.419 123.289 145.62 125.176 144.616 127.5C143.612 129.825 143.47 132.432 144.214 134.852C144.375 135.378 143.541 135.556 143.381 135.033Z" fill="white"/>
<path d="M125.268 149.905C130.13 152.575 135.816 153.31 141.193 151.961C141.726 151.827 141.905 152.663 141.373 152.797C135.775 154.19 129.859 153.414 124.806 150.624C124.325 150.357 124.789 149.64 125.268 149.905Z" fill="white"/>
<path d="M167.773 130.345C167.867 131.416 168.225 132.446 168.814 133.344C169.404 134.242 170.206 134.979 171.15 135.489C171.634 135.749 171.169 136.466 170.687 136.208C169.648 135.64 168.763 134.825 168.109 133.834C167.456 132.844 167.054 131.708 166.94 130.525C166.92 130.415 166.942 130.301 167.003 130.206C167.064 130.112 167.158 130.044 167.267 130.017C167.377 129.994 167.492 130.015 167.587 130.076C167.682 130.138 167.749 130.234 167.773 130.345Z" fill="white"/>
<path d="M130.097 151.693C126.017 131.901 120.916 125.302 120.916 125.302L118.968 123.786L116.624 121.961L116.636 121.726L116.08 121.536L115.949 121.435L115.735 121.27L115.701 121.307L115.628 121.382L105.025 117.767L91.5723 113.183L85.343 105.06C84.3284 103.737 83.0223 102.668 81.5269 101.937C80.0315 101.205 78.3875 100.831 76.7237 100.843L56.8293 100.991C54.1393 101.011 51.5541 102.039 49.5818 103.874L36.5055 116.042L16.1301 125.804L16.0957 125.769L15.8817 125.923L12.7335 127.433L12.8634 128.111L10.9149 129.522C10.9149 129.522 5.81436 135.661 1.73391 154.077C0.695895 158.763 0.184944 168.815 0.000518275 181.202C-0.00874542 181.828 0.106259 182.451 0.338842 183.032C0.571424 183.614 0.916947 184.143 1.35532 184.59C1.79369 185.036 2.31616 185.391 2.89236 185.633C3.46856 185.875 4.08698 186 4.71168 186H113.541V186H127.124C127.748 186 128.366 185.875 128.942 185.633C129.518 185.391 130.04 185.037 130.479 184.591C130.917 184.145 131.263 183.617 131.495 183.036C131.728 182.455 131.844 181.833 131.835 181.207C131.655 167.728 131.145 156.774 130.097 151.693Z" fill="#3F3D56"/>
<path d="M144.06 17.2601C139.826 17.2601 135.766 18.9474 132.772 21.9508C129.778 24.9542 128.096 29.0277 128.096 33.2752C128.096 37.5226 129.778 41.5961 132.772 44.5995C135.766 47.6029 139.826 49.2902 144.06 49.2902H263.035C267.269 49.2902 271.33 47.6029 274.324 44.5995C277.318 41.5961 279 37.5226 279 33.2752C279 29.0277 277.318 24.9542 274.324 21.9508C271.33 18.9474 267.269 17.2601 263.035 17.2601H144.06Z" fill="#E5E5E5"/>
<path d="M144.06 20.5012C140.683 20.5012 137.444 21.847 135.056 24.2426C132.668 26.6382 131.327 29.8873 131.327 33.2751C131.327 36.663 132.668 39.9121 135.056 42.3077C137.444 44.7032 140.683 46.0491 144.06 46.0491H263.035C266.413 46.0491 269.651 44.7032 272.039 42.3077C274.427 39.9121 275.769 36.663 275.769 33.2751C275.769 29.8873 274.427 26.6382 272.039 24.2426C269.651 21.847 266.413 20.5012 263.035 20.5012H144.06Z" fill="white"/>
<path d="M69.9007 93.3453C84.2953 93.3453 95.9645 81.6394 95.9645 67.1994C95.9645 52.7594 84.2953 41.0534 69.9007 41.0534C55.5062 41.0534 43.837 52.7594 43.837 67.1994C43.837 81.6394 55.5062 93.3453 69.9007 93.3453Z" fill="#9E616A"/>
<path d="M63.2331 92.0651C63.1218 91.8192 63.0108 91.5724 62.9 91.3248C62.9427 91.3262 62.9849 91.3323 63.0276 91.3334L63.2331 92.0651Z" fill="#2F2E41"/>
<path d="M43.1122 42.2424C44.4305 41.1875 45.9712 40.2169 47.6566 40.2714C49.3419 40.3259 51.0511 41.853 50.7019 43.5079C53.7976 38.0093 58.7251 33.7803 64.6193 31.5632C70.5136 29.346 76.9981 29.2823 82.9345 31.3834C87.1234 32.8659 91.2312 35.8319 92.1935 40.182C92.4405 41.2987 92.4935 42.5232 93.1886 43.43C94.0649 44.5733 95.7416 44.8319 97.1223 44.4297C97.1361 44.4257 97.1499 44.4216 97.1636 44.4175C97.3969 44.3376 97.6486 44.3297 97.8864 44.3949C98.1241 44.4601 98.3369 44.5954 98.4972 44.7832C98.6574 44.9711 98.7578 45.2028 98.7854 45.4485C98.8129 45.6942 98.7663 45.9425 98.6516 46.1614L97.4664 48.3788C98.9605 48.7129 100.513 48.6798 101.991 48.2823C102.237 48.2176 102.497 48.2308 102.734 48.32C102.972 48.4092 103.177 48.5701 103.32 48.7805C103.463 48.9909 103.538 49.2405 103.534 49.4952C103.53 49.7499 103.448 49.9972 103.298 50.2031C99.3899 55.5857 92.8606 59.0615 86.1975 59.0207C81.4619 58.9917 76.6775 57.3545 72.0686 58.4469C70.2856 58.8695 68.6196 59.6872 67.1927 60.84C65.7658 61.9928 64.6144 63.4515 63.8227 65.1089C63.0311 66.7663 62.6194 68.5806 62.6179 70.4184C62.6164 72.2563 63.0251 74.0712 63.814 75.7299C62.3981 74.1764 59.6611 74.5442 58.2127 76.0674C56.7645 77.5906 56.3895 79.8641 56.5355 81.964C56.7586 85.1757 58.013 88.2021 59.3354 91.1475C48.2482 90.7974 37.7616 82.9953 34.2317 72.4429C30.6871 61.8462 34.402 49.2128 43.1122 42.2424Z" fill="#2F2E41"/>
<path opacity="0.2" d="M25.6534 145.717L32.9637 185.617L37.3501 186L25.6534 145.717Z" fill="black"/>
<path opacity="0.2" d="M106.178 142.708L98.8674 185.588L94.481 186L106.178 142.708Z" fill="black"/>
<path d="M49.3473 28.8144C47.9457 29.4015 46.4831 28.7581 45.8698 27.2845C45.247 25.7884 45.8287 24.2697 47.2528 23.6732C48.677 23.0766 50.1135 23.7216 50.7463 25.2418C51.3696 26.7392 50.7943 28.2083 49.3473 28.8144ZM46.6624 20.7284L45.5479 21.1953C45.2695 21.3105 44.9581 21.3167 44.6754 21.2127C44.3926 21.1086 44.1591 20.9019 44.021 20.6334L43.9658 20.5253C42.7667 18.3558 42.6294 15.7191 43.5599 12.6926C44.4219 9.9777 44.78 8.0683 44.0599 6.33848C43.2274 4.33849 41.4497 3.71199 39.1828 4.61954C38.3035 4.98784 38.0238 4.98197 37.3318 5.67052C37.1813 5.82212 37.0019 5.94176 36.8043 6.02231C36.6067 6.10286 36.395 6.14267 36.1817 6.13936C35.9756 6.13693 35.772 6.09287 35.5832 6.00981C35.3944 5.92676 35.2242 5.80641 35.0827 5.65594C34.8102 5.36597 34.6575 4.98306 34.6555 4.58454C34.6535 4.18602 34.8023 3.80158 35.0719 3.50886C36.2349 2.28759 37.6376 1.32141 39.1915 0.671288C44.0623 -1.36898 46.5142 1.64318 47.6363 4.33878C48.7338 6.97538 48.1164 9.42171 47.1244 12.5899C46.2932 15.2226 46.3416 17.1733 47.2859 19.1129C47.354 19.2596 47.392 19.4185 47.3974 19.5802C47.4028 19.7419 47.3756 19.9031 47.3173 20.0539C47.2591 20.2048 47.1711 20.3424 47.0585 20.4583C46.946 20.5742 46.8112 20.6661 46.6624 20.7284L46.6624 20.7284Z" fill="#FFA000"/>
<path d="M170.34 40.9133H146.669C146.594 40.9138 146.519 40.8994 146.449 40.8708C146.38 40.8423 146.317 40.8003 146.263 40.7471C146.21 40.694 146.167 40.6307 146.139 40.5611C146.11 40.4914 146.095 40.4167 146.095 40.3413C146.095 40.2659 146.11 40.1912 146.139 40.1215C146.167 40.0519 146.21 39.9886 146.263 39.9355C146.317 39.8823 146.38 39.8403 146.449 39.8117C146.519 39.7832 146.594 39.7688 146.669 39.7693H170.34C170.491 39.7704 170.635 39.8311 170.741 39.9382C170.847 40.0454 170.907 40.1903 170.907 40.3413C170.907 40.4923 170.847 40.6372 170.741 40.7444C170.635 40.8515 170.491 40.9122 170.34 40.9133Z" fill="#FFA000"/>
<path d="M200.369 41.1039H176.698C176.623 41.1044 176.548 41.09 176.478 41.0615C176.409 41.033 176.345 40.9909 176.292 40.9377C176.239 40.8846 176.196 40.8213 176.167 40.7517C176.139 40.682 176.124 40.6074 176.124 40.5319C176.124 40.4565 176.139 40.3818 176.167 40.3121C176.196 40.2425 176.239 40.1792 176.292 40.1261C176.345 40.0729 176.409 40.0309 176.478 40.0024C176.548 39.9738 176.623 39.9594 176.698 39.9599H200.369C200.444 39.9594 200.519 39.9738 200.589 40.0024C200.658 40.0309 200.722 40.0729 200.775 40.1261C200.828 40.1792 200.871 40.2425 200.9 40.3121C200.928 40.3818 200.943 40.4565 200.943 40.5319C200.943 40.6074 200.928 40.682 200.9 40.7517C200.871 40.8213 200.828 40.8846 200.775 40.9377C200.722 40.9909 200.658 41.033 200.589 41.0615C200.519 41.09 200.444 41.1044 200.369 41.1039Z" fill="#FFA000"/>
<path d="M230.398 41.2945H206.726C206.576 41.2935 206.432 41.2328 206.326 41.1256C206.22 41.0185 206.16 40.8736 206.16 40.7226C206.16 40.5716 206.22 40.4267 206.326 40.3195C206.432 40.2124 206.576 40.1516 206.726 40.1506H230.398C230.473 40.1501 230.548 40.1645 230.617 40.193C230.687 40.2215 230.75 40.2636 230.804 40.3168C230.857 40.3699 230.899 40.4331 230.928 40.5028C230.957 40.5724 230.972 40.6471 230.972 40.7226C230.972 40.798 230.957 40.8727 230.928 40.9424C230.899 41.012 230.857 41.0752 230.804 41.1284C230.75 41.1816 230.687 41.2236 230.617 41.2521C230.548 41.2806 230.473 41.2951 230.398 41.2945H230.398Z" fill="#FFA000"/>
<path d="M260.427 41.4852H236.755C236.605 41.4842 236.461 41.4234 236.355 41.3163C236.249 41.2091 236.189 41.0642 236.189 40.9132C236.189 40.7622 236.249 40.6173 236.355 40.5101C236.461 40.403 236.605 40.3423 236.755 40.3412H260.427C260.577 40.3423 260.721 40.403 260.828 40.5101C260.934 40.6173 260.993 40.7622 260.993 40.9132C260.993 41.0642 260.934 41.2091 260.828 41.3163C260.721 41.4234 260.577 41.4842 260.427 41.4852Z" fill="#FFA000"/>
<path d="M158.453 35.6494C160.882 35.6494 162.852 33.6734 162.852 31.2359C162.852 28.7985 160.882 26.8225 158.453 26.8225C156.023 26.8225 154.053 28.7985 154.053 31.2359C154.053 33.6734 156.023 35.6494 158.453 35.6494Z" fill="#FFA000"/>
<path d="M188.663 35.6494C191.093 35.6494 193.062 33.6734 193.062 31.2359C193.062 28.7985 191.093 26.8225 188.663 26.8225C186.233 26.8225 184.263 28.7985 184.263 31.2359C184.263 33.6734 186.233 35.6494 188.663 35.6494Z" fill="#FFA000"/>
<path d="M218.873 35.6494C221.303 35.6494 223.272 33.6734 223.272 31.2359C223.272 28.7985 221.303 26.8225 218.873 26.8225C216.443 26.8225 214.473 28.7985 214.473 31.2359C214.473 33.6734 216.443 35.6494 218.873 35.6494Z" fill="#FFA000"/>
<path d="M249.083 35.6494C251.513 35.6494 253.483 33.6734 253.483 31.2359C253.483 28.7985 251.513 26.8225 249.083 26.8225C246.653 26.8225 244.684 28.7985 244.684 31.2359C244.684 33.6734 246.653 35.6494 249.083 35.6494Z" fill="#FFA000"/>
</g>
<defs>
<clipPath id="clip0_42_552">
<rect width="279" height="186" fill="white"/>
</clipPath>
</defs>
</svg>
