<svg width="280" height="220" viewBox="0 0 280 220" fill="none" xmlns="http://www.w3.org/2000/svg">
<path d="M218.565 82.5807C232.831 82.5807 244.397 71.0074 244.397 56.7311C244.397 42.4547 232.831 30.8814 218.565 30.8814C204.298 30.8814 192.732 42.4547 192.732 56.7311C192.732 71.0074 204.298 82.5807 218.565 82.5807Z" fill="#FFA000"/>
<path d="M220.463 216.529V157.113C220.464 156.281 220.795 155.483 221.383 154.894C221.971 154.306 222.768 153.975 223.6 153.974H230.724C231.556 153.975 232.353 154.306 232.941 154.894C233.53 155.483 233.86 156.281 233.861 157.113V216.529C233.86 217.361 233.53 218.159 232.941 218.748C232.353 219.336 231.556 219.667 230.724 219.668H223.6C222.768 219.667 221.971 219.336 221.383 218.748C220.795 218.159 220.464 217.361 220.463 216.529Z" fill="#2F2E41"/>
<path d="M205.407 216.529V157.113C205.408 156.281 205.739 155.483 206.327 154.894C206.915 154.306 207.713 153.975 208.544 153.974H215.669C216.5 153.975 217.298 154.306 217.886 154.894C218.474 155.483 218.805 156.281 218.806 157.113V216.529C218.805 217.361 218.474 218.159 217.886 218.748C217.298 219.336 216.5 219.667 215.669 219.668H208.544C207.713 219.667 206.915 219.336 206.327 218.748C205.739 218.159 205.408 217.361 205.407 216.529Z" fill="#2F2E41"/>
<path d="M199.536 160.717V108.097C199.536 102.969 201.572 98.0514 205.195 94.4254C208.819 90.7994 213.733 88.7623 218.858 88.7623H218.858C223.982 88.7623 228.897 90.7994 232.521 94.4254C236.144 98.0514 238.18 102.969 238.18 108.097V160.717C238.18 161.55 237.849 162.348 237.261 162.937C236.673 163.526 235.875 163.857 235.043 163.857H202.673C201.841 163.857 201.043 163.526 200.455 162.937C199.866 162.348 199.536 161.55 199.536 160.717Z" fill="#2F2E41"/>
<path d="M196.75 68.158L196.777 67.192C194.981 67.142 193.397 67.0292 192.208 66.1595C191.87 65.8989 191.593 65.5686 191.395 65.1912C191.196 64.8138 191.082 64.3981 191.058 63.9723C191.037 63.7121 191.077 63.4507 191.173 63.2082C191.27 62.9657 191.421 62.7488 191.615 62.5742C192.404 61.9068 193.675 62.1228 194.601 62.5478L195.4 62.9143L193.869 51.7134L192.912 51.8445L194.215 61.3724C192.956 61.0021 191.79 61.1616 190.992 61.8365C190.685 62.1045 190.444 62.4397 190.288 62.8161C190.133 63.1925 190.066 63.5998 190.094 64.0063C190.122 64.5783 190.275 65.1373 190.541 65.644C190.808 66.1507 191.183 66.5929 191.638 66.9396C193.167 68.0575 195.153 68.1132 196.75 68.158Z" fill="#2F2E41"/>
<path d="M204.593 52.6662H199.394V53.6322H204.593V52.6662Z" fill="#2F2E41"/>
<path d="M228.784 160.681C228.48 160.402 228.234 160.066 228.06 159.692C227.887 159.318 227.79 158.913 227.774 158.501L225.314 99.1365C225.297 98.7245 225.361 98.3133 225.503 97.9262C225.645 97.5391 225.861 97.1837 226.14 96.8803C226.419 96.577 226.755 96.3316 227.129 96.1582C227.503 95.9848 227.907 95.8867 228.319 95.8697L235.437 95.5742C236.268 95.5406 237.079 95.8383 237.691 96.402C238.303 96.9657 238.666 97.7494 238.701 98.581L241.161 157.946C241.194 158.777 240.897 159.588 240.333 160.201C239.77 160.813 238.987 161.177 238.156 161.212L231.038 161.507C230.811 161.517 230.584 161.502 230.36 161.463C229.77 161.36 229.223 161.088 228.784 160.681Z" fill="#FFA000"/>
<path d="M237.867 120.502H226.283C225.451 120.501 224.653 120.17 224.065 119.582C223.477 118.993 223.146 118.195 223.145 117.363V100.941C223.145 98.5711 224.086 96.2984 225.761 94.6226C227.435 92.9469 229.706 92.0055 232.075 92.0055C234.443 92.0055 236.714 92.9469 238.389 94.6226C240.063 96.2984 241.004 98.5711 241.004 100.941V117.363C241.003 118.195 240.672 118.993 240.084 119.582C239.496 120.17 238.699 120.501 237.867 120.502Z" fill="#2F2E41"/>
<path d="M163.476 142.502L158.935 137.01C158.406 136.368 158.152 135.542 158.23 134.713C158.309 133.885 158.712 133.121 159.352 132.59L205.101 94.7146C205.742 94.1844 206.567 93.9305 207.395 94.0087C208.224 94.087 208.987 94.491 209.518 95.132L214.059 100.625C214.322 100.943 214.519 101.309 214.64 101.703C214.761 102.097 214.804 102.511 214.765 102.921C214.726 103.332 214.607 103.731 214.414 104.095C214.222 104.459 213.959 104.782 213.641 105.045L167.894 142.92C167.343 143.375 166.653 143.63 165.938 143.64C165.224 143.65 164.527 143.417 163.963 142.977C163.784 142.837 163.621 142.677 163.476 142.502Z" fill="#FFA000"/>
<path d="M197.214 117.833L189.875 108.863C189.349 108.218 189.1 107.391 189.183 106.563C189.265 105.735 189.673 104.973 190.316 104.445L203.014 94.0424C203.921 93.2988 204.966 92.7413 206.089 92.4018C207.211 92.0623 208.39 91.9474 209.557 92.0637C210.724 92.18 211.857 92.5252 212.89 93.0796C213.924 93.634 214.838 94.3868 215.581 95.2949C216.324 96.203 216.881 97.2486 217.22 98.3721C217.559 99.4955 217.674 100.675 217.557 101.843C217.441 103.01 217.096 104.144 216.541 105.178C215.987 106.212 215.235 107.127 214.327 107.87L201.629 118.273C200.984 118.8 200.158 119.049 199.33 118.966C198.502 118.884 197.741 118.476 197.214 117.833Z" fill="#2F2E41"/>
<path d="M225.041 61.1077C226.386 58.8589 227.439 56.3812 226.939 53.7168C226.493 51.3376 224.782 49.4847 222.321 49.2415C220.84 49.0951 219.365 49.4909 217.918 49.7486C216.732 49.9572 215.526 50.0353 214.323 49.9817C211.902 49.8715 209.529 49.2694 207.348 48.2119C205.134 47.1752 203.168 45.6763 201.581 43.8158C199.995 41.9554 198.825 39.7766 198.15 37.4259C196.682 32.0773 197.772 26.0036 201.258 21.6499L200.048 21.3302L201.624 26.51C201.655 26.6163 201.709 26.7141 201.783 26.7963C201.857 26.8785 201.948 26.9428 202.051 26.9845C202.153 27.0261 202.264 27.0441 202.374 27.0369C202.484 27.0297 202.591 26.9976 202.687 26.943C205.543 25.1375 208.735 23.9313 212.071 23.3977C215.406 22.864 218.815 23.0141 222.091 23.8387C223.942 24.304 225.73 24.9921 227.416 25.8879C228.238 26.3255 228.971 25.0752 228.146 24.6368C224.981 22.9841 221.513 21.9913 217.952 21.7184C214.392 21.4455 210.813 21.8981 207.433 23.0489C205.507 23.7055 203.669 24.593 201.957 25.6919L203.02 26.1248L201.445 20.945C201.409 20.8239 201.344 20.7139 201.253 20.6259C201.163 20.5378 201.052 20.4746 200.93 20.4424C200.808 20.4102 200.68 20.4101 200.558 20.4422C200.436 20.4742 200.325 20.5373 200.234 20.6253C198.613 22.6838 197.424 25.0494 196.741 27.5798C196.057 30.1101 195.892 32.7527 196.257 35.3485C196.609 37.9068 197.497 40.3619 198.864 42.5526C200.23 44.7433 202.044 46.6203 204.186 48.0604C206.326 49.5059 208.732 50.5124 211.263 51.0217C213.795 51.5309 216.402 51.5327 218.934 51.027C220.351 50.7544 221.958 50.3642 223.348 50.9579C223.853 51.2014 224.297 51.5529 224.65 51.9876C225.004 52.4223 225.257 52.9295 225.392 53.4732C226.18 56.1448 224.839 58.6819 223.47 60.9033L225.041 61.1077Z" fill="#2F2E41"/>
<path d="M212.1 111.93L212.082 111.93C211.812 111.929 211.55 111.837 211.34 111.668C211.13 111.498 210.983 111.263 210.924 110.999L211.018 90.8734C210.957 90.6011 210.991 90.3159 211.114 90.0653C211.237 89.8147 211.442 89.6136 211.694 89.4955C215.195 87.8498 218.813 87.6286 222.754 88.8205C223.056 88.9099 223.31 89.1134 223.464 89.3879C223.618 89.6623 223.659 89.9859 223.578 90.29L213.265 111.032C213.2 111.291 213.049 111.52 212.838 111.683C212.627 111.846 212.367 111.933 212.1 111.93Z" fill="#CCCCCC"/>
<path d="M279.517 220H159.814C159.686 220 159.563 219.949 159.473 219.859C159.382 219.768 159.331 219.645 159.331 219.517C159.331 219.389 159.382 219.266 159.473 219.175C159.563 219.085 159.686 219.034 159.814 219.034H279.517C279.645 219.034 279.768 219.085 279.859 219.175C279.949 219.266 280 219.389 280 219.517C280 219.645 279.949 219.768 279.859 219.859C279.768 219.949 279.645 220 279.517 220Z" fill="#3F3D56"/>
<path d="M162.179 150.349H72.4012C71.1855 150.347 70.02 149.863 69.1604 149.003C68.3007 148.143 67.8172 146.977 67.8158 145.76V79.1064C67.8172 77.8899 68.3007 76.7236 69.1604 75.8634C70.02 75.0032 71.1855 74.5193 72.4012 74.5179H162.179C163.394 74.5193 164.56 75.0032 165.42 75.8634C166.279 76.7236 166.763 77.8899 166.764 79.1064V145.76C166.763 146.977 166.279 148.143 165.42 149.003C164.56 149.863 163.394 150.347 162.179 150.349Z" fill="white"/>
<path d="M84.0226 118.186L101.385 118.471H111.498C111.946 118.47 112.375 118.292 112.692 117.975C113.008 117.658 113.187 117.228 113.187 116.78V116.19L104.479 106.82C104.324 106.653 104.138 106.52 103.931 106.427C103.723 106.335 103.499 106.285 103.273 106.281C103.046 106.277 102.82 106.318 102.61 106.403C102.399 106.488 102.208 106.615 102.047 106.776L93.4828 115.346C93.2565 115.572 92.9498 115.699 92.63 115.699C92.3103 115.699 92.0035 115.573 91.777 115.347L90.5093 114.08C90.1922 113.764 89.7626 113.586 89.3147 113.586C88.8669 113.587 88.4374 113.765 88.1206 114.081L84.0226 118.186Z" fill="#FFA000"/>
<path d="M162.179 150.349H72.4012C71.1855 150.347 70.02 149.863 69.1604 149.003C68.3007 148.143 67.8172 146.977 67.8158 145.76V79.1064C67.8172 77.8899 68.3007 76.7236 69.1604 75.8634C70.02 75.0032 71.1855 74.5193 72.4012 74.5179H162.179C163.394 74.5193 164.56 75.0032 165.42 75.8634C166.279 76.7236 166.763 77.8899 166.764 79.1064V145.76C166.763 146.977 166.279 148.143 165.42 149.003C164.56 149.863 163.394 150.347 162.179 150.349ZM72.4012 75.9669C71.5694 75.9679 70.772 76.299 70.1838 76.8875C69.5956 77.4761 69.2648 78.2741 69.2638 79.1064V145.76C69.2648 146.593 69.5956 147.39 70.1838 147.979C70.772 148.568 71.5694 148.899 72.4012 148.9H162.179C163.01 148.899 163.808 148.568 164.396 147.979C164.984 147.391 165.315 146.593 165.316 145.76V79.1064C165.315 78.2741 164.984 77.4761 164.396 76.8875C163.808 76.2989 163.01 75.9679 162.179 75.9669H72.4012Z" fill="#3F3D56"/>
<path d="M152.042 86.3514H82.5373C82.1532 86.3514 81.7849 86.1987 81.5134 85.927C81.2418 85.6553 81.0892 85.2867 81.0892 84.9024C81.0892 84.5181 81.2418 84.1496 81.5134 83.8778C81.7849 83.6061 82.1532 83.4534 82.5373 83.4534H152.042C152.426 83.4534 152.795 83.6061 153.066 83.8778C153.338 84.1496 153.49 84.5181 153.49 84.9024C153.49 85.2867 153.338 85.6553 153.066 85.927C152.795 86.1987 152.426 86.3514 152.042 86.3514Z" fill="#3F3D56"/>
<path d="M152.284 94.3209H82.7787C82.3947 94.3209 82.0264 94.1682 81.7548 93.8965C81.4833 93.6247 81.3307 93.2562 81.3307 92.8719C81.3307 92.4876 81.4833 92.119 81.7548 91.8473C82.0264 91.5755 82.3947 91.4229 82.7787 91.4229H152.284C152.668 91.4229 153.036 91.5755 153.308 91.8473C153.579 92.119 153.732 92.4876 153.732 92.8719C153.732 93.2562 153.579 93.6247 153.308 93.8965C153.036 94.1682 152.668 94.3209 152.284 94.3209Z" fill="#3F3D56"/>
<path d="M152.525 102.29H119.221C118.837 102.29 118.468 102.138 118.197 101.866C117.925 101.594 117.773 101.226 117.773 100.841C117.773 100.457 117.925 100.088 118.197 99.8167C118.468 99.545 118.837 99.3923 119.221 99.3923H152.525C152.909 99.3923 153.277 99.545 153.549 99.8167C153.821 100.088 153.973 100.457 153.973 100.841C153.973 101.226 153.821 101.594 153.549 101.866C153.277 102.138 152.909 102.29 152.525 102.29Z" fill="#3F3D56"/>
<path d="M152.766 110.26H119.462C119.078 110.26 118.71 110.107 118.438 109.835C118.166 109.564 118.014 109.195 118.014 108.811C118.014 108.427 118.166 108.058 118.438 107.786C118.71 107.514 119.078 107.362 119.462 107.362H152.766C153.151 107.362 153.519 107.514 153.79 107.786C154.062 108.058 154.215 108.427 154.215 108.811C154.215 109.195 154.062 109.564 153.79 109.835C153.519 110.107 153.151 110.26 152.766 110.26Z" fill="#3F3D56"/>
<path d="M153.008 118.229H119.703C119.319 118.229 118.951 118.077 118.679 117.805C118.408 117.533 118.255 117.165 118.255 116.78C118.255 116.396 118.408 116.027 118.679 115.756C118.951 115.484 119.319 115.331 119.703 115.331H153.008C153.392 115.331 153.76 115.484 154.032 115.756C154.303 116.027 154.456 116.396 154.456 116.78C154.456 117.165 154.303 117.533 154.032 117.805C153.76 118.077 153.392 118.229 153.008 118.229Z" fill="#3F3D56"/>
<path d="M153.249 126.199H83.744C83.36 126.199 82.9917 126.046 82.7201 125.774C82.4486 125.503 82.296 125.134 82.296 124.75C82.296 124.365 82.4486 123.997 82.7201 123.725C82.9917 123.453 83.36 123.301 83.744 123.301H153.249C153.633 123.301 154.002 123.453 154.273 123.725C154.545 123.997 154.697 124.365 154.697 124.75C154.697 125.134 154.545 125.503 154.273 125.774C154.002 126.046 153.633 126.199 153.249 126.199Z" fill="#3F3D56"/>
<path d="M153.491 134.168H83.9854C83.6013 134.168 83.233 134.016 82.9615 133.744C82.6899 133.472 82.5374 133.104 82.5374 132.719C82.5374 132.335 82.6899 131.966 82.9615 131.695C83.233 131.423 83.6013 131.27 83.9854 131.27H153.491C153.875 131.27 154.243 131.423 154.514 131.695C154.786 131.966 154.939 132.335 154.939 132.719C154.939 133.104 154.786 133.472 154.514 133.744C154.243 134.016 153.875 134.168 153.491 134.168Z" fill="#3F3D56"/>
<path d="M153.732 142.138H84.2267C83.8427 142.138 83.4744 141.985 83.2028 141.713C82.9313 141.442 82.7787 141.073 82.7787 140.689C82.7787 140.304 82.9313 139.936 83.2028 139.664C83.4744 139.392 83.8427 139.24 84.2267 139.24H153.732C154.116 139.24 154.484 139.392 154.756 139.664C155.027 139.936 155.18 140.304 155.18 140.689C155.18 141.073 155.027 141.442 154.756 141.713C154.484 141.985 154.116 142.138 153.732 142.138Z" fill="#3F3D56"/>
<path d="M111.498 118.712H84.4681C84.0657 118.713 83.6697 118.612 83.3173 118.418H83.3106L83.188 118.344C82.8406 118.127 82.5543 117.826 82.356 117.468C82.1576 117.11 82.0539 116.707 82.0547 116.297V101.807C82.0554 101.167 82.3099 100.553 82.7624 100.1C83.2148 99.6477 83.8282 99.3931 84.4681 99.3923H111.498C112.138 99.3931 112.751 99.6477 113.204 100.1C113.656 100.553 113.91 101.167 113.911 101.807V116.297C113.91 116.938 113.656 117.551 113.204 118.004C112.751 118.457 112.138 118.712 111.498 118.712ZM83.6405 117.485L83.7098 117.528C83.9365 117.672 84.1996 117.748 84.4681 117.746H111.498C111.882 117.746 112.25 117.593 112.521 117.321C112.793 117.05 112.945 116.681 112.946 116.297V101.807C112.945 101.423 112.793 101.055 112.521 100.783C112.25 100.512 111.882 100.359 111.498 100.358H84.4681C84.0842 100.359 83.7161 100.512 83.4446 100.783C83.1732 101.055 83.0205 101.423 83.02 101.807V116.297C83.0197 116.531 83.076 116.761 83.1841 116.968C83.2921 117.175 83.4488 117.352 83.6405 117.485Z" fill="#3F3D56"/>
<path d="M1.03461 161.014C0.793379 161.066 0.57182 161.186 0.395307 161.358C0.218793 161.531 0.0944676 161.75 0.0366004 161.99C-0.0212667 162.23 -0.0103379 162.482 0.0681228 162.716C0.146583 162.95 0.289411 163.158 0.480225 163.315L6.28534 168.083C6.3702 168.154 6.44047 168.241 6.49224 168.339C6.54046 168.437 6.56789 168.545 6.57281 168.655L6.98569 177.461C6.99391 177.749 7.09871 178.026 7.28326 178.248C7.46781 178.469 7.72137 178.622 8.0032 178.682L8.01347 178.684C8.29191 178.75 8.58453 178.721 8.84473 178.602C9.10493 178.483 9.31777 178.28 9.44934 178.025L11.5104 174.211C11.5796 174.085 11.6815 173.981 11.8054 173.908C11.9293 173.836 12.0704 173.799 12.2137 173.801C12.3191 173.801 12.4234 173.823 12.52 173.865C12.6166 173.907 12.7034 173.969 12.775 174.047L22.8375 184.664C22.9827 184.818 23.1632 184.934 23.3634 185.003C23.5637 185.072 23.7776 185.091 23.9868 185.058C24.1953 185.026 24.393 184.944 24.5632 184.819C24.7335 184.694 24.8713 184.531 24.965 184.341L39.4523 154.901C39.5618 154.68 39.6067 154.432 39.5816 154.186C39.5565 153.94 39.4625 153.706 39.3105 153.511C39.1585 153.316 38.9545 153.168 38.7221 153.084C38.4898 153 38.2384 152.983 37.9969 153.035L37.5227 153.137L1.03458 161.014H1.03461ZM0.811725 162.909C0.697391 162.815 0.61192 162.69 0.565085 162.549C0.518251 162.409 0.51195 162.258 0.546908 162.114C0.581867 161.97 0.65668 161.838 0.762763 161.735C0.868846 161.631 1.00191 161.56 1.14675 161.528L37.6235 153.655L38.109 153.55C38.2536 153.519 38.404 153.53 38.5429 153.58C38.6818 153.631 38.8038 153.719 38.8948 153.836C38.9859 153.953 39.0423 154.092 39.0578 154.24C39.0733 154.387 39.0472 154.535 38.9824 154.668L24.4951 184.108C24.4389 184.222 24.3561 184.32 24.2538 184.395C24.1514 184.47 24.0325 184.519 23.9072 184.538C23.7819 184.557 23.6539 184.545 23.534 184.504C23.4141 184.463 23.3059 184.394 23.2185 184.302L13.1561 173.685C13.0578 173.578 12.9419 173.49 12.8135 173.423L38.1113 154.828C38.2108 154.756 38.2821 154.652 38.313 154.533C38.3439 154.415 38.3323 154.289 38.2803 154.178C38.2284 154.067 38.1392 153.977 38.0284 153.925C37.9175 153.873 37.7919 153.861 37.6732 153.892C37.6441 153.899 37.6158 153.909 37.5887 153.921L6.8212 167.884C6.76105 167.808 6.6925 167.739 6.61685 167.678L0.811725 162.909V162.909Z" fill="#E6E6E6"/>
<path d="M1.03461 161.014C0.793379 161.066 0.57182 161.186 0.395307 161.358C0.218793 161.531 0.0944676 161.75 0.0366004 161.99C-0.0212667 162.23 -0.0103379 162.482 0.0681228 162.716C0.146583 162.95 0.289411 163.158 0.480225 163.315L6.28534 168.083C6.3702 168.154 6.44047 168.241 6.49224 168.339C6.54046 168.437 6.56789 168.545 6.57281 168.655L6.98569 177.461C6.99391 177.749 7.09871 178.026 7.28326 178.248C7.46781 178.469 7.72137 178.622 8.0032 178.682L8.01347 178.684C8.29191 178.75 8.58453 178.721 8.84473 178.602C9.10493 178.483 9.31777 178.28 9.44934 178.025L11.5104 174.211C11.5796 174.085 11.6815 173.981 11.8054 173.908C11.9293 173.836 12.0704 173.799 12.2137 173.801C12.3191 173.801 12.4234 173.823 12.52 173.865C12.6166 173.907 12.7034 173.969 12.775 174.047L22.8375 184.664C22.9827 184.818 23.1632 184.934 23.3634 185.003C23.5637 185.072 23.7776 185.091 23.9868 185.058C24.1953 185.026 24.393 184.944 24.5632 184.819C24.7335 184.694 24.8713 184.531 24.965 184.341L39.4523 154.901C39.5618 154.68 39.6067 154.432 39.5816 154.186C39.5565 153.94 39.4625 153.706 39.3105 153.511C39.1585 153.316 38.9545 153.168 38.7221 153.084C38.4898 153 38.2384 152.983 37.9969 153.035L37.5227 153.137L1.03458 161.014H1.03461ZM0.811725 162.909C0.697391 162.815 0.61192 162.69 0.565085 162.549C0.518251 162.409 0.51195 162.258 0.546908 162.114C0.581867 161.97 0.65668 161.838 0.762763 161.735C0.868846 161.631 1.00191 161.56 1.14675 161.528L37.6235 153.655L38.109 153.55C38.2536 153.519 38.404 153.53 38.5429 153.58C38.6818 153.631 38.8038 153.719 38.8948 153.836C38.9859 153.953 39.0423 154.092 39.0578 154.24C39.0733 154.387 39.0472 154.535 38.9824 154.668L24.4951 184.108C24.4389 184.222 24.3561 184.32 24.2538 184.395C24.1514 184.47 24.0325 184.519 23.9072 184.538C23.7819 184.557 23.6539 184.545 23.534 184.504C23.4141 184.463 23.3059 184.394 23.2185 184.302L13.1561 173.685C13.0578 173.578 12.9419 173.49 12.8135 173.423C12.6298 173.326 12.4251 173.275 12.2172 173.275C12.1879 173.274 12.1581 173.275 12.1281 173.277L12.1256 173.276C11.9028 173.289 11.6871 173.359 11.4987 173.478C11.3104 173.598 11.1558 173.764 11.0496 173.961L8.98797 177.778C8.90927 177.931 8.78114 178.053 8.62438 178.125C8.46763 178.196 8.29143 178.212 8.12434 178.17L8.1192 178.169C7.94964 178.135 7.79691 178.043 7.68612 177.91C7.57534 177.777 7.51309 177.61 7.50963 177.437L7.09686 168.631C7.09344 168.538 7.07958 168.446 7.05553 168.356L7.0561 168.353C7.03331 168.267 7.0014 168.183 6.9609 168.103C6.92226 168.026 6.87542 167.952 6.82117 167.884C6.76102 167.808 6.69248 167.739 6.61684 167.678L0.811711 162.909H0.811725Z" fill="#CCCCCC"/>
<path d="M6.82125 167.884L37.5887 153.921C37.6159 153.909 37.6442 153.899 37.6732 153.892C37.7919 153.861 37.9175 153.873 38.0284 153.925C38.1393 153.977 38.2284 154.067 38.2804 154.178C38.3323 154.289 38.3439 154.415 38.313 154.533C38.2821 154.652 38.2108 154.756 38.1113 154.828L12.8136 173.423L12.3672 173.752L12.0577 173.328L12.1256 173.276L12.1281 173.277L37.7993 154.404L7.05618 168.353L7.0556 168.356L6.92166 168.415L6.70483 167.936L6.82125 167.884Z" fill="#CCCCCC"/>
<path d="M184.312 175.987L147.824 168.11L147.35 168.008C147.109 167.956 146.857 167.973 146.625 168.057C146.392 168.141 146.188 168.289 146.036 168.484C145.884 168.679 145.79 168.913 145.765 169.159C145.74 169.405 145.785 169.653 145.895 169.874L160.382 199.314C160.476 199.504 160.613 199.667 160.784 199.792C160.954 199.917 161.152 199.999 161.36 200.031C161.569 200.064 161.783 200.045 161.983 199.976C162.184 199.907 162.364 199.791 162.509 199.637L172.572 189.02C172.643 188.942 172.73 188.88 172.827 188.838C172.923 188.796 173.028 188.774 173.133 188.774C173.276 188.772 173.418 188.809 173.541 188.881C173.665 188.953 173.767 189.058 173.836 189.183L175.898 192.998C176.029 193.253 176.242 193.456 176.502 193.575C176.762 193.694 177.055 193.723 177.333 193.657L177.344 193.655C177.625 193.595 177.879 193.442 178.064 193.221C178.248 192.999 178.353 192.722 178.361 192.434L178.774 183.628C178.779 183.518 178.806 183.41 178.855 183.312C178.906 183.214 178.977 183.127 179.062 183.056L184.867 178.287C185.057 178.131 185.2 177.923 185.279 177.689C185.357 177.455 185.368 177.203 185.31 176.963C185.252 176.723 185.128 176.504 184.952 176.331C184.775 176.159 184.553 176.039 184.312 175.987L184.312 175.987ZM184.535 177.882L178.73 182.651C178.654 182.712 178.586 182.781 178.526 182.857L147.758 168.894C147.731 168.882 147.703 168.872 147.674 168.865C147.555 168.834 147.429 168.846 147.319 168.898C147.208 168.95 147.119 169.04 147.067 169.151C147.015 169.262 147.003 169.388 147.034 169.506C147.065 169.625 147.136 169.729 147.236 169.801L172.533 188.396C172.405 188.463 172.289 188.551 172.191 188.658L162.128 199.275C162.041 199.367 161.933 199.436 161.813 199.477C161.693 199.518 161.565 199.53 161.44 199.511C161.314 199.492 161.195 199.443 161.093 199.368C160.991 199.293 160.908 199.195 160.852 199.081L146.365 169.641C146.3 169.508 146.274 169.36 146.289 169.213C146.305 169.065 146.361 168.926 146.452 168.809C146.543 168.692 146.665 168.604 146.804 168.553C146.943 168.502 147.093 168.492 147.238 168.523L147.723 168.628L184.2 176.501C184.345 176.533 184.478 176.604 184.584 176.708C184.69 176.811 184.765 176.942 184.8 177.087C184.835 177.231 184.829 177.382 184.782 177.522C184.735 177.663 184.65 177.788 184.535 177.882V177.882Z" fill="#E6E6E6"/>
<path d="M184.312 175.987L147.824 168.11L147.35 168.008C147.109 167.956 146.857 167.973 146.625 168.057C146.392 168.141 146.188 168.289 146.036 168.484C145.884 168.679 145.79 168.913 145.765 169.159C145.74 169.405 145.785 169.653 145.895 169.874L160.382 199.314C160.476 199.504 160.613 199.667 160.784 199.792C160.954 199.917 161.152 199.999 161.36 200.031C161.569 200.064 161.783 200.045 161.983 199.976C162.184 199.907 162.364 199.791 162.509 199.637L172.572 189.02C172.643 188.942 172.73 188.88 172.827 188.838C172.923 188.796 173.028 188.774 173.133 188.774C173.276 188.772 173.418 188.809 173.541 188.881C173.665 188.953 173.767 189.058 173.836 189.183L175.898 192.998C176.029 193.253 176.242 193.456 176.502 193.575C176.762 193.694 177.055 193.723 177.333 193.657L177.344 193.655C177.625 193.595 177.879 193.442 178.064 193.221C178.248 192.999 178.353 192.722 178.361 192.434L178.774 183.628C178.779 183.518 178.806 183.41 178.855 183.312C178.906 183.214 178.977 183.127 179.062 183.056L184.867 178.287C185.057 178.131 185.2 177.923 185.279 177.689C185.357 177.455 185.368 177.203 185.31 176.963C185.252 176.723 185.128 176.504 184.952 176.331C184.775 176.159 184.553 176.039 184.312 175.987L184.312 175.987ZM184.535 177.882L178.73 182.651C178.654 182.712 178.586 182.781 178.526 182.857C178.471 182.925 178.425 182.999 178.386 183.076C178.345 183.156 178.314 183.24 178.291 183.326L178.291 183.329C178.267 183.419 178.253 183.511 178.25 183.604L177.837 192.41C177.834 192.583 177.772 192.75 177.661 192.883C177.55 193.016 177.397 193.108 177.228 193.142L177.223 193.143C177.055 193.185 176.879 193.169 176.722 193.097C176.566 193.026 176.438 192.904 176.359 192.751L174.297 188.933C174.191 188.737 174.036 188.571 173.848 188.451C173.66 188.332 173.444 188.262 173.221 188.249L173.219 188.25C173.189 188.248 173.159 188.247 173.13 188.248C172.922 188.248 172.717 188.299 172.533 188.396C172.405 188.463 172.289 188.551 172.191 188.658L162.128 199.275C162.041 199.367 161.933 199.436 161.813 199.477C161.693 199.518 161.565 199.53 161.44 199.511C161.314 199.492 161.195 199.443 161.093 199.368C160.991 199.293 160.908 199.195 160.852 199.081L146.365 169.641C146.3 169.508 146.274 169.36 146.289 169.213C146.305 169.065 146.361 168.926 146.452 168.809C146.543 168.692 146.665 168.604 146.804 168.553C146.943 168.502 147.093 168.492 147.238 168.523L147.723 168.628L184.2 176.501C184.345 176.533 184.478 176.604 184.584 176.708C184.69 176.811 184.765 176.942 184.8 177.087C184.835 177.231 184.829 177.382 184.782 177.522C184.735 177.663 184.65 177.788 184.535 177.882V177.882Z" fill="#CCCCCC"/>
<path d="M178.642 182.909L178.425 183.388L178.291 183.329L178.291 183.326L147.548 169.377L173.219 188.25L173.221 188.249L173.289 188.301L172.98 188.725L172.533 188.396L147.236 169.801C147.136 169.729 147.065 169.625 147.034 169.506C147.003 169.388 147.015 169.262 147.067 169.151C147.119 169.04 147.208 168.95 147.319 168.898C147.429 168.846 147.555 168.834 147.674 168.865C147.703 168.872 147.731 168.882 147.758 168.894L178.526 182.857L178.642 182.909Z" fill="#CCCCCC"/>
<path d="M40.9094 0.5582C40.6768 0.316063 40.3817 0.143233 40.0568 0.0589366C39.7319 -0.0253599 39.3901 -0.01782 39.0692 0.0807222C38.7484 0.179264 38.4612 0.364943 38.2395 0.617101C38.0178 0.869259 37.8704 1.17802 37.8137 1.50901L36.3 11.5104C36.2762 11.6578 36.2237 11.799 36.1453 11.9261C36.0627 12.0505 35.9554 12.1567 35.8302 12.2379L25.7682 18.8045C25.4368 19.0091 25.1852 19.3207 25.0547 19.6878C24.9243 20.0549 24.9228 20.4555 25.0506 20.8235L25.0552 20.8369C25.1776 21.2072 25.4195 21.5263 25.7428 21.744C26.0662 21.9618 26.4527 22.0658 26.8416 22.0397L32.7797 21.7817C32.975 21.7741 33.1687 21.8191 33.3406 21.9122C33.5125 22.0053 33.6561 22.1431 33.7565 22.3109C33.8308 22.432 33.8788 22.5674 33.8973 22.7084C33.9158 22.8493 33.9044 22.9925 33.8638 23.1287L28.4754 42.0911C28.3967 42.3657 28.3871 42.6555 28.4476 42.9347C28.5081 43.2138 28.6367 43.4737 28.822 43.691C29.0092 43.9103 29.2456 44.0822 29.512 44.1924C29.7784 44.3026 30.067 44.348 30.3544 44.325L75.1795 40.6959C75.5846 40.6643 75.9675 40.4977 76.2669 40.2229C76.4389 40.0659 76.5778 39.8759 76.6752 39.6643C76.7727 39.4527 76.8267 39.2237 76.8343 38.9908C76.8418 38.7579 76.8026 38.5259 76.719 38.3084C76.6354 38.091 76.509 37.8925 76.3475 37.7247L75.8931 37.2477L40.9093 0.558193L40.9094 0.5582ZM38.524 1.6115C38.5608 1.3744 38.6772 1.15691 38.854 0.994841C39.065 0.801922 39.343 0.699047 39.6287 0.708113C39.9144 0.717179 40.1853 0.837468 40.3837 1.04338L75.3562 37.7217L75.8218 38.2097C75.9856 38.382 76.0863 38.6046 76.1075 38.8415C76.1186 38.9818 76.102 39.1229 76.0584 39.2568C76.0149 39.3907 75.9454 39.5146 75.8538 39.6215C75.7623 39.7284 75.6506 39.8162 75.5251 39.8797C75.3995 39.9433 75.2627 39.9815 75.1224 39.992L30.2973 43.6211C30.1709 43.6311 30.0437 43.6192 29.9214 43.5858C29.7859 43.5504 29.6588 43.4884 29.5474 43.4033C29.4361 43.3183 29.3427 43.212 29.2728 43.0905C29.2029 42.9691 29.1578 42.835 29.1401 42.6959C29.1224 42.5569 29.1325 42.4157 29.1698 42.2806L34.5582 23.3184C34.6138 23.1316 34.636 22.9365 34.6241 22.742L74.3208 39.0962C74.4541 39.1528 74.6011 39.1684 74.7433 39.1412C74.8855 39.1141 75.0164 39.0452 75.1195 38.9435C75.1858 38.878 75.2384 38.7999 75.2741 38.7137C75.3097 38.6275 75.3278 38.5351 75.3272 38.4418C75.3265 38.3485 75.3072 38.2563 75.2704 38.1706C75.2335 38.085 75.1799 38.0075 75.1126 37.9429C75.0837 37.9142 75.0521 37.8884 75.0181 37.8659L36.9115 11.9917C36.9588 11.8696 36.9919 11.7425 37.0103 11.6128L38.524 1.61146L38.524 1.6115Z" fill="#E6E6E6"/>
<path d="M40.9094 0.5582C40.6768 0.316063 40.3817 0.143233 40.0568 0.0589366C39.7319 -0.0253599 39.3901 -0.01782 39.0692 0.0807222C38.7484 0.179264 38.4612 0.364943 38.2395 0.617101C38.0178 0.869259 37.8704 1.17802 37.8137 1.50901L36.3 11.5104C36.2762 11.6578 36.2237 11.799 36.1453 11.9261C36.0627 12.0505 35.9554 12.1567 35.8302 12.2379L25.7682 18.8045C25.4368 19.0091 25.1852 19.3207 25.0547 19.6878C24.9243 20.0549 24.9228 20.4555 25.0506 20.8235L25.0552 20.8369C25.1776 21.2072 25.4195 21.5263 25.7428 21.744C26.0662 21.9618 26.4527 22.0658 26.8416 22.0397L32.7797 21.7817C32.975 21.7741 33.1687 21.8191 33.3406 21.9122C33.5125 22.0053 33.6561 22.1431 33.7565 22.3109C33.8308 22.432 33.8788 22.5674 33.8973 22.7084C33.9158 22.8493 33.9044 22.9925 33.8638 23.1287L28.4754 42.0911C28.3967 42.3657 28.3871 42.6555 28.4476 42.9347C28.5081 43.2138 28.6367 43.4737 28.822 43.691C29.0092 43.9103 29.2456 44.0822 29.512 44.1924C29.7784 44.3026 30.067 44.348 30.3544 44.325L75.1795 40.6959C75.5846 40.6643 75.9675 40.4977 76.2669 40.2229C76.4389 40.0659 76.5778 39.8759 76.6752 39.6643C76.7727 39.4527 76.8267 39.2237 76.8343 38.9908C76.8418 38.7579 76.8026 38.5259 76.719 38.3084C76.6354 38.091 76.509 37.8925 76.3475 37.7247L75.8931 37.2477L40.9093 0.558193L40.9094 0.5582ZM38.524 1.6115C38.5608 1.3744 38.6772 1.15691 38.854 0.994841C39.065 0.801922 39.343 0.699047 39.6287 0.708113C39.9144 0.717179 40.1853 0.837468 40.3837 1.04338L75.3562 37.7217L75.8218 38.2097C75.9856 38.382 76.0863 38.6046 76.1075 38.8415C76.1186 38.9818 76.102 39.1229 76.0584 39.2568C76.0149 39.3907 75.9454 39.5146 75.8538 39.6215C75.7623 39.7284 75.6506 39.8162 75.5251 39.8797C75.3995 39.9433 75.2627 39.9815 75.1224 39.992L30.2973 43.6211C30.1709 43.6311 30.0437 43.6192 29.9214 43.5858C29.7859 43.5504 29.6588 43.4883 29.5474 43.4033C29.4361 43.3183 29.3427 43.212 29.2728 43.0905C29.2029 42.9691 29.1578 42.8349 29.1401 42.6959C29.1224 42.5569 29.1325 42.4157 29.1699 42.2806L34.5583 23.3184C34.6138 23.1316 34.636 22.9365 34.6241 22.742C34.6086 22.462 34.5241 22.1902 34.3779 21.9509C34.3585 21.9163 34.3358 21.8828 34.313 21.8492L34.3119 21.8459C34.1372 21.5963 33.9023 21.3949 33.629 21.2604C33.3558 21.126 33.053 21.0628 32.7488 21.0767L26.8073 21.3358C26.5734 21.3522 26.3408 21.2895 26.1468 21.1579C25.9527 21.0263 25.8084 20.8333 25.737 20.6099L25.7347 20.6032C25.6563 20.3827 25.6564 20.1418 25.7349 19.9213C25.8134 19.7008 25.9656 19.5142 26.1656 19.393L36.2277 12.8266C36.3345 12.7584 36.4334 12.6785 36.5224 12.5884L36.5258 12.5873C36.6111 12.5014 36.6871 12.4067 36.7523 12.3047C36.8164 12.2064 36.8698 12.1014 36.9115 11.9917C36.9588 11.8696 36.9919 11.7425 37.0103 11.6128L38.524 1.61144V1.6115Z" fill="#CCCCCC"/>
<path d="M36.9115 11.9917L75.0182 37.8659C75.0521 37.8884 75.0838 37.9142 75.1127 37.943C75.2157 38.0419 75.2859 38.1702 75.3137 38.3104C75.3416 38.4506 75.3257 38.596 75.2682 38.7269C75.1901 38.9003 75.0471 39.0361 74.8699 39.1052C74.6928 39.1742 74.4957 39.171 74.3209 39.0963L34.6241 22.742L33.9229 22.4539L34.2026 21.8036L34.3119 21.846L34.313 21.8492L74.5995 38.4426L36.5258 12.5873L36.5224 12.5884L36.3585 12.4746L36.768 11.8934L36.9115 11.9917Z" fill="#CCCCCC"/>
</svg>
