<svg width="127" height="127" viewBox="0 0 127 127" fill="none" xmlns="http://www.w3.org/2000/svg">
<defs>
<linearGradient id="paint0_linear_21_26" x1="62.1771" y1="15.875" x2="62.1771" y2="108.479" gradientUnits="userSpaceOnUse">
<stop stop-color="#FFA000"/>
<stop offset="1" stop-color="#FFECB3"/>
</linearGradient>
</defs>
<path d="M50.2708 15.875C59.3932 15.875 68.1419 19.4988 74.5924 25.9493C81.0428 32.3998 84.6667 41.1485 84.6667 50.2708C84.6667 58.7904 81.5446 66.6221 76.4117 72.6546L77.8404 74.0833H82.0208L108.479 100.542L100.542 108.479L74.0833 82.0208V77.8404L72.6546 76.4117C66.4133 81.7392 58.4767 84.6662 50.2708 84.6667C41.1485 84.6667 32.3998 81.0428 25.9493 74.5924C19.4988 68.1419 15.875 59.3932 15.875 50.2708C15.875 41.1485 19.4988 32.3998 25.9493 25.9493C32.3998 19.4988 41.1485 15.875 50.2708 15.875ZM50.2708 26.4583C37.0417 26.4583 26.4583 37.0417 26.4583 50.2708C26.4583 63.5 37.0417 74.0833 50.2708 74.0833C63.5 74.0833 74.0833 63.5 74.0833 50.2708C74.0833 37.0417 63.5 26.4583 50.2708 26.4583Z" fill="url(#paint0_linear_21_26)"/>
</svg>
