<svg width="189" height="162" viewBox="0 0 189 162" fill="none" xmlns="http://www.w3.org/2000/svg">
<g clip-path="url(#clip0_42_785)">
<path d="M55.5434 160.31C58.5775 157.743 60.4204 153.687 59.9371 149.74C59.4538 145.792 56.4603 142.163 52.5774 141.324C48.6945 140.486 44.2682 142.806 43.0889 146.604C42.4398 139.282 41.6919 131.653 37.8039 125.417C34.2835 119.771 28.186 115.731 21.5777 115.008C14.9694 114.285 8.01165 117.015 3.89029 122.238C-0.231066 127.461 -1.24016 135.053 1.64633 141.049C3.77271 145.466 7.69025 148.754 11.7949 151.428C25.0583 159.997 40.9661 163.481 56.5913 161.241" fill="#F2F2F2"/>
<path d="M10.425 117.167C15.8777 121.614 20.8799 126.587 25.3594 132.016C32.3698 140.482 38.0427 149.974 42.1804 160.162C42.4833 160.905 41.278 161.229 40.9785 160.494C38.3472 154.053 35.0918 147.885 31.259 142.08C25.282 133.011 17.9595 124.908 9.54367 118.049C8.92143 117.542 9.80792 116.663 10.425 117.167V117.167Z" fill="white"/>
<path d="M57.639 160.31C54.6049 157.743 52.762 153.687 53.2453 149.74C53.7286 145.792 56.7221 142.163 60.605 141.324C64.4879 140.486 68.9142 142.806 70.0936 146.604C70.7426 139.282 71.4905 131.653 75.3785 125.417C78.899 119.771 84.9965 115.731 91.6048 115.008C98.2131 114.285 105.171 117.015 109.292 122.238C113.413 127.461 114.423 135.053 111.536 141.049C109.41 145.466 105.492 148.754 101.388 151.428C88.1241 159.997 72.2163 163.481 56.5911 161.241" fill="#F2F2F2"/>
<path d="M102.757 117.167C97.3047 121.614 92.3025 126.587 87.823 132.016C80.8126 140.482 75.1398 149.974 71.002 160.162C70.6991 160.905 71.9044 161.229 72.2039 160.494C78.974 143.937 89.7817 129.344 103.639 118.049C104.261 117.542 103.375 116.663 102.757 117.167V117.167Z" fill="white"/>
<path d="M66.6423 72.8754C72.2552 72.8754 76.8054 68.3193 76.8054 62.6991C76.8054 57.0789 72.2552 52.5228 66.6423 52.5228C61.0294 52.5228 56.4792 57.0789 56.4792 62.6991C56.4792 68.3193 61.0294 72.8754 66.6423 72.8754Z" fill="#F2F2F2"/>
<path d="M35.307 27.6197H105.328V31.4556H44.2458C40.6544 31.4556 37.0982 32.1638 33.7801 33.54C30.4621 34.9161 27.4473 36.9332 24.9078 39.476C22.3683 42.0188 20.3539 45.0375 18.9795 48.3599C17.6051 51.6822 16.8978 55.243 16.8978 58.8391V102.419H9.23595C8.89728 102.419 8.57248 102.285 8.33301 102.045C8.09353 101.805 7.95899 101.48 7.95898 101.141V55.0032C7.95898 51.4071 8.66636 47.8463 10.0407 44.524C11.4151 41.2016 13.4295 38.1829 15.969 35.6401C18.5085 33.0973 21.5234 31.0802 24.8414 29.7041C28.1594 28.3279 31.7156 27.6196 35.307 27.6197Z" fill="#F2F2F2"/>
<path d="M48.7751 160.523V102.255H65.8229V160.523C65.8224 160.914 65.6669 161.29 65.3903 161.567C65.1137 161.844 64.7387 162 64.3476 162H50.2504C49.8593 162 49.4843 161.844 49.2077 161.567C48.9312 161.29 48.7756 160.914 48.7751 160.523Z" fill="#3F3D56"/>
<path d="M4.35278 101.106V53.7261C4.36129 46.1834 7.35746 38.9522 12.684 33.6187C18.0105 28.2852 25.2324 25.2851 32.7652 25.2766H105V102.748H5.99199C5.5574 102.747 5.14075 102.574 4.83345 102.266C4.52615 101.959 4.35328 101.542 4.35278 101.106ZM104.344 25.9331H32.7652C25.4062 25.9415 18.351 28.8724 13.1474 34.0827C7.94381 39.2931 5.01678 46.3575 5.00846 53.7261V101.106C5.00875 101.367 5.11246 101.618 5.29685 101.802C5.48123 101.987 5.73123 102.091 5.99199 102.091H104.344V25.9331Z" fill="#3F3D56"/>
<path d="M66.6424 67.9514C65.0779 67.9496 63.5779 67.3265 62.4716 66.2188C61.3653 65.111 60.743 63.6091 60.7413 62.0425V19.696C60.741 19.4349 60.6373 19.1846 60.4529 19C60.2685 18.8154 60.0185 18.7115 59.7577 18.7112H36.8089C36.3743 18.7107 35.9577 18.5377 35.6504 18.23C35.3431 17.9223 35.1702 17.5051 35.1697 17.0699V1.64134C35.1702 1.20618 35.3431 0.788993 35.6504 0.481291C35.9577 0.17359 36.3743 0.000503904 36.8089 0H70.9043C71.3389 0.000497835 71.7556 0.173584 72.0629 0.481286C72.3702 0.788989 72.5431 1.20618 72.5435 1.64134V62.0425C72.5418 63.6091 71.9195 65.111 70.8132 66.2188C69.7069 67.3265 68.207 67.9496 66.6424 67.9514Z" fill="#FFA000"/>
<path d="M107.622 24.6201C112.568 24.6097 117.315 26.567 120.82 30.0613C124.324 33.5557 126.299 38.3009 126.309 43.253V97.1905H163.028C164.503 97.1874 165.918 97.7712 166.964 98.8133C168.009 99.8555 168.598 101.271 168.601 102.748H88.9355V43.253C88.9459 38.3009 90.9205 33.5557 94.425 30.0613C97.9295 26.567 102.677 24.6097 107.622 24.6201Z" fill="#3F3D56"/>
<path d="M103.138 55.3352L107.008 71.3403L182.7 52.9929L178.831 36.9878C178.784 36.7921 178.688 36.6115 178.553 36.4625C178.418 36.3136 178.248 36.2013 178.058 36.136C177.917 36.0866 177.769 36.0642 177.62 36.0701L133.867 13.3861C133.61 13.2551 133.316 13.22 133.036 13.2874C132.756 13.3548 132.509 13.5201 132.34 13.7536L111.254 43.1971L103.304 54.3C103.29 54.3195 103.28 54.3418 103.275 54.3655C103.27 54.3892 103.27 54.4137 103.275 54.4373C103.113 54.707 103.064 55.0296 103.138 55.3352Z" fill="white"/>
<path d="M103.275 54.4373C103.279 54.4581 103.287 54.478 103.298 54.4958C103.309 54.5136 103.324 54.529 103.342 54.541C103.362 54.5551 103.385 54.5648 103.41 54.5697C103.434 54.5745 103.459 54.5743 103.484 54.5691C103.523 54.5585 103.558 54.5345 103.582 54.501L103.609 54.4632L104.023 53.8836L111.54 43.3908L132.62 13.954C132.741 13.7872 132.917 13.6691 133.116 13.6211C133.316 13.5731 133.527 13.5985 133.709 13.6926L177.124 36.2008L177.513 36.4033C177.529 36.4099 177.545 36.4156 177.562 36.4202C177.591 36.4149 177.621 36.412 177.651 36.4117C177.692 36.398 177.726 36.3693 177.746 36.3313C177.756 36.3114 177.763 36.2895 177.765 36.267C177.767 36.2444 177.765 36.2217 177.758 36.2001C177.751 36.1785 177.741 36.1584 177.726 36.141C177.712 36.1236 177.694 36.1092 177.674 36.0987L177.62 36.0701L133.867 13.3861C133.61 13.2551 133.316 13.22 133.036 13.2874C132.756 13.3548 132.509 13.5201 132.34 13.7536L111.254 43.1971L103.304 54.3C103.29 54.3195 103.28 54.3418 103.275 54.3655C103.27 54.3892 103.27 54.4137 103.275 54.4373Z" fill="#3F3D56"/>
<path d="M126.008 56.0694L127.693 56.2565L140.197 57.6435L148.487 58.5625L148.977 58.617L159.321 50.5269L159.717 50.217L162.16 48.3064L170.853 41.5092L170.905 41.0318L173.996 13.0916C174.039 12.7069 173.927 12.3211 173.685 12.0189C173.444 11.7166 173.092 11.5226 172.708 11.4793L131.448 6.90269C131.063 6.86068 130.678 6.97283 130.376 7.21458C130.075 7.45633 129.881 7.80798 129.837 8.19252L127.657 27.9009L126.448 38.8275L125.366 48.6028L124.864 53.1425L124.718 54.4575C124.676 54.8424 124.789 55.2281 125.03 55.5302C125.272 55.8324 125.624 56.0262 126.008 56.0694Z" fill="#E6E6E6"/>
<path d="M137.346 31.5786L155.219 33.5607L161.557 34.2634C161.837 34.2944 162.12 34.27 162.391 34.1914C162.661 34.1129 162.914 33.9818 163.133 33.8056C163.353 33.6294 163.536 33.4116 163.672 33.1646C163.808 32.9176 163.893 32.6462 163.924 32.366C163.955 32.0858 163.931 31.8022 163.852 31.5315C163.774 31.2607 163.643 31.0081 163.467 30.788C163.291 30.568 163.074 30.3847 162.827 30.2488C162.58 30.1129 162.309 30.027 162.029 29.996L154.146 29.1217L137.82 27.3091C137.254 27.2465 136.687 27.4113 136.243 27.7672C135.799 28.1231 135.515 28.641 135.452 29.207C135.389 29.773 135.554 30.3407 135.909 30.7855C136.264 31.2302 136.781 31.5155 137.346 31.5786Z" fill="white"/>
<path d="M136.329 39.4951C136.375 39.5034 136.421 39.5116 136.468 39.5161L157.215 41.8176L160.679 42.2026C161.245 42.2652 161.812 42.1004 162.256 41.7444C162.7 41.3884 162.984 40.8703 163.047 40.3042C163.109 39.7381 162.945 39.1702 162.589 38.7257C162.234 38.2811 161.716 37.9961 161.151 37.9335L156.142 37.3786L139.707 35.5552L136.942 35.2483C136.388 35.1865 135.833 35.3425 135.393 35.6833C134.952 36.0242 134.662 36.5231 134.582 37.0746C134.503 37.6261 134.64 38.1871 134.966 38.6388C135.292 39.0905 135.781 39.3975 136.329 39.4951V39.4951Z" fill="white"/>
<path d="M133.98 46.5147C134.15 46.7974 134.383 47.037 134.661 47.2149C134.938 47.3928 135.253 47.5043 135.581 47.5407L144.084 48.4837L159.23 50.1638L159.233 50.163L159.717 50.217L162.16 48.3065C162.175 48.1613 162.176 48.015 162.161 47.8699C162.109 47.3825 161.893 46.9274 161.548 46.5797C161.203 46.2321 160.75 46.0128 160.264 45.9581L158.16 45.724L149.814 44.7992L143.809 44.1324L136.052 43.2716C135.655 43.2275 135.253 43.2957 134.892 43.4683C134.531 43.641 134.225 43.9113 134.01 44.2487C133.794 44.586 133.678 44.977 133.672 45.3775C133.667 45.7779 133.774 46.1718 133.981 46.5147L133.98 46.5147Z" fill="white"/>
<path d="M145.925 21.9019L150.372 22.395L152.336 22.6134L155.303 22.9422C155.868 23.0048 156.435 22.84 156.879 22.484C157.323 22.128 157.608 21.6099 157.67 21.0438C157.733 20.4777 157.568 19.9099 157.213 19.4653C156.857 19.0207 156.34 18.7357 155.775 18.6731L146.398 17.634C145.833 17.5711 145.266 17.7356 144.822 18.0913C144.378 18.447 144.093 18.9648 144.03 19.5307C143.968 20.0967 144.132 20.6645 144.487 21.1091C144.842 21.5538 145.36 21.8389 145.925 21.9018V21.9019Z" fill="white"/>
<path d="M109.562 33.7892L114.984 56.2144L124.033 57.9372L132.403 59.5329L141.384 61.2439L144.253 61.7907C144.421 61.8225 144.594 61.8181 144.76 61.7779C144.927 61.7376 145.082 61.6623 145.217 61.5571L147.519 59.7567L148.977 58.617L159.321 50.5269L152.744 23.3222C152.679 23.0515 152.537 22.8054 152.336 22.6134C152.159 22.4436 151.943 22.3209 151.707 22.2568C151.47 22.1927 151.222 22.1893 150.984 22.2467L110.636 32.0267C110.261 32.118 109.936 32.3549 109.735 32.6854C109.534 33.0159 109.471 33.4129 109.562 33.7892Z" fill="#FFA000"/>
<path d="M121.994 51.6292C122.128 52.1824 122.476 52.6596 122.962 52.9562C123.447 53.2527 124.03 53.3443 124.583 53.2108L148.258 47.4721C148.81 47.3374 149.286 46.989 149.582 46.5031C149.878 46.0172 149.97 45.4336 149.837 44.8802C149.831 44.8528 149.823 44.8257 149.814 44.7992C149.663 44.2657 149.311 43.8115 148.833 43.5317C148.355 43.252 147.787 43.1684 147.249 43.2986L123.574 49.0373C123.021 49.1717 122.545 49.5201 122.248 50.0061C121.952 50.492 121.861 51.0758 121.994 51.6292Z" fill="white"/>
<path d="M124.033 57.9372L132.403 59.5329L150.134 55.2349C150.687 55.101 151.164 54.7526 151.46 54.2665C151.756 53.7805 151.848 53.1965 151.714 52.643C151.58 52.0896 151.232 51.612 150.747 51.3154C150.261 51.0188 149.678 50.9274 149.125 51.0614L125.45 56.8001C124.956 56.919 124.52 57.2115 124.222 57.6245C124.15 57.7232 124.087 57.8278 124.033 57.9372Z" fill="white"/>
<path d="M141.384 61.2439L144.253 61.7907C144.421 61.8225 144.594 61.8181 144.76 61.7778C144.927 61.7376 145.082 61.6623 145.217 61.5571L147.519 59.7567L141.384 61.2439Z" fill="white"/>
<path d="M126.764 39.6044C126.899 40.1576 127.247 40.6348 127.732 40.9313C128.217 41.2279 128.8 41.3194 129.353 41.186L138.523 38.9632C139.075 38.8286 139.552 38.4801 139.848 37.9942C140.144 37.5083 140.235 36.9247 140.102 36.3713C140.031 36.074 139.896 35.7955 139.707 35.5552C139.454 35.2302 139.112 34.9853 138.723 34.8495C138.334 34.7138 137.914 34.693 137.514 34.7897L128.344 37.0124C127.791 37.1465 127.314 37.4948 127.018 37.9809C126.722 38.467 126.631 39.0509 126.764 39.6044V39.6044Z" fill="white"/>
<path d="M132.402 59.5327L141.385 61.2442L144.253 61.7912C144.421 61.8226 144.594 61.818 144.76 61.7778C144.926 61.7376 145.081 61.6625 145.216 61.5577L147.52 59.7569L146.712 59.9529L145.005 61.286C144.909 61.3608 144.798 61.4144 144.679 61.4432C144.56 61.4719 144.437 61.4752 144.317 61.4527L142.193 61.0482L133.211 59.3367L132.402 59.5327ZM159.232 50.1643L159.32 50.526L159.718 50.2158L159.232 50.1643ZM132.402 59.5327L141.385 61.2442L144.253 61.7912C144.421 61.8226 144.594 61.818 144.76 61.7778C144.926 61.7376 145.081 61.6625 145.216 61.5577L147.52 59.7569L146.712 59.9529L145.005 61.286C144.909 61.3608 144.798 61.4144 144.679 61.4432C144.56 61.4719 144.437 61.4752 144.317 61.4527L142.193 61.0482L133.211 59.3367L132.402 59.5327ZM132.402 59.5327L141.385 61.2442L144.253 61.7912C144.421 61.8226 144.594 61.818 144.76 61.7778C144.926 61.7376 145.081 61.6625 145.216 61.5577L147.52 59.7569L146.712 59.9529L145.005 61.286C144.909 61.3608 144.798 61.4144 144.679 61.4432C144.56 61.4719 144.437 61.4752 144.317 61.4527L142.193 61.0482L133.211 59.3367L132.402 59.5327ZM103.138 55.3352L113.274 97.2583C113.349 97.5681 113.544 97.8354 113.816 98.0014C114.087 98.1675 114.414 98.2188 114.723 98.1441L188.081 80.3625C188.391 80.2872 188.658 80.0921 188.824 79.82C188.989 79.5478 189.041 79.2209 188.966 78.9109L178.831 36.9878C178.784 36.7921 178.688 36.6114 178.553 36.4625C178.418 36.3136 178.248 36.2013 178.058 36.1359C177.917 36.0865 177.769 36.0642 177.62 36.07C177.447 36.0751 177.277 36.1198 177.124 36.2008C177.053 36.2344 176.986 36.276 176.925 36.3246L170.904 41.0318L162.161 47.8708L159.231 50.1618L159.232 50.1643L159.23 50.1649L148.488 58.5613L146.712 59.9528L145.005 61.2859C144.909 61.3608 144.798 61.4144 144.679 61.4431C144.56 61.4719 144.437 61.4752 144.317 61.4527L142.193 61.0482L133.211 59.3367L124.221 57.6246L104.53 53.8726C104.362 53.8393 104.189 53.843 104.023 53.8836C103.799 53.9384 103.595 54.0564 103.437 54.2236C103.376 54.2893 103.322 54.3609 103.275 54.4373C103.113 54.7069 103.064 55.0296 103.138 55.3352ZM132.402 59.5327L141.385 61.2442L144.253 61.7912C144.421 61.8226 144.594 61.818 144.76 61.7778C144.926 61.7376 145.081 61.6625 145.216 61.5577L147.52 59.7569L146.712 59.9529L145.005 61.286C144.909 61.3608 144.798 61.4144 144.679 61.4432C144.56 61.4719 144.437 61.4752 144.317 61.4527L142.193 61.0482L133.211 59.3367L132.402 59.5327ZM132.402 59.5327L141.385 61.2442L144.253 61.7912C144.421 61.8226 144.594 61.818 144.76 61.7778C144.926 61.7376 145.081 61.6625 145.216 61.5577L147.52 59.7569L146.712 59.9529L145.005 61.286C144.909 61.3608 144.798 61.4144 144.679 61.4432C144.56 61.4719 144.437 61.4752 144.317 61.4527L142.193 61.0482L133.211 59.3367L132.402 59.5327ZM132.402 59.5327L141.385 61.2442L144.253 61.7912C144.421 61.8226 144.594 61.818 144.76 61.7778C144.926 61.7376 145.081 61.6625 145.216 61.5577L147.52 59.7569L146.712 59.9529L145.005 61.286C144.909 61.3608 144.798 61.4144 144.679 61.4432C144.56 61.4719 144.437 61.4752 144.317 61.4527L142.193 61.0482L133.211 59.3367L132.402 59.5327Z" fill="white"/>
<path d="M132.402 59.5327L141.385 61.2442L144.253 61.7912C144.421 61.8226 144.594 61.8181 144.76 61.7778C144.926 61.7376 145.081 61.6626 145.216 61.5577L147.52 59.7569L146.712 59.9529L145.005 61.286C144.909 61.3609 144.798 61.4144 144.679 61.4432C144.56 61.4719 144.437 61.4752 144.317 61.4528L142.193 61.0482L133.211 59.3368L132.402 59.5327ZM159.232 50.1643L159.32 50.526L159.718 50.2159L159.232 50.1643ZM132.402 59.5327L141.385 61.2442L144.253 61.7912C144.421 61.8226 144.594 61.8181 144.76 61.7778C144.926 61.7376 145.081 61.6626 145.216 61.5577L147.52 59.7569L146.712 59.9529L145.005 61.286C144.909 61.3609 144.798 61.4144 144.679 61.4432C144.56 61.4719 144.437 61.4752 144.317 61.4528L142.193 61.0482L133.211 59.3368L132.402 59.5327ZM132.402 59.5327L141.385 61.2442L144.253 61.7912C144.421 61.8226 144.594 61.8181 144.76 61.7778C144.926 61.7376 145.081 61.6626 145.216 61.5577L147.52 59.7569L146.712 59.9529L145.005 61.286C144.909 61.3609 144.798 61.4144 144.679 61.4432C144.56 61.4719 144.437 61.4752 144.317 61.4528L142.193 61.0482L133.211 59.3368L132.402 59.5327ZM103.609 54.4632L103.654 54.4967C103.661 54.4844 103.674 54.4735 103.684 54.4607C103.783 54.3572 103.907 54.2799 104.043 54.236C104.18 54.192 104.325 54.1826 104.466 54.2086L124.033 57.9358L132.402 59.5327L141.385 61.2442L144.253 61.7912C144.421 61.8226 144.594 61.818 144.76 61.7778C144.926 61.7376 145.081 61.6626 145.216 61.5577L147.52 59.7569L146.712 59.9529L145.005 61.286C144.909 61.3608 144.798 61.4144 144.679 61.4432C144.56 61.4719 144.437 61.4752 144.317 61.4528L142.193 61.0482L133.211 59.3368L124.221 57.6246L104.53 53.8726C104.362 53.8393 104.189 53.8431 104.023 53.8836L103.609 54.4632ZM103.138 55.3352L113.274 97.2583C113.349 97.5681 113.544 97.8354 113.816 98.0015C114.087 98.1675 114.414 98.2188 114.723 98.1441L188.081 80.3626C188.391 80.2873 188.658 80.0921 188.824 79.82C188.989 79.5478 189.041 79.2209 188.966 78.9109L178.831 36.9879C178.784 36.7922 178.688 36.6115 178.553 36.4625C178.418 36.3136 178.248 36.2013 178.058 36.136C177.917 36.0866 177.769 36.0642 177.62 36.0701C177.447 36.0751 177.277 36.1198 177.124 36.2008C177.053 36.2345 176.986 36.276 176.925 36.3246L170.904 41.0319L162.161 47.8708L159.231 50.1618L159.232 50.1643L159.23 50.1649L148.488 58.5613L146.712 59.9529L145.005 61.286C144.909 61.3609 144.798 61.4144 144.679 61.4432C144.56 61.4719 144.437 61.4752 144.317 61.4528L142.193 61.0482L133.211 59.3368L124.221 57.6246L104.53 53.8726C104.362 53.8393 104.189 53.8431 104.023 53.8836C103.799 53.9384 103.595 54.0564 103.437 54.2237C103.376 54.2893 103.322 54.3609 103.275 54.4373C103.113 54.707 103.064 55.0296 103.138 55.3352ZM103.473 55.2542C103.443 55.1306 103.441 55.0019 103.467 54.8775C103.493 54.7531 103.547 54.6361 103.624 54.5351C103.631 54.5203 103.641 54.5072 103.654 54.4967C103.661 54.4845 103.674 54.4735 103.684 54.4607C103.783 54.3572 103.907 54.2799 104.043 54.236C104.18 54.192 104.325 54.1826 104.466 54.2086L124.033 57.9358L132.402 59.5327L141.385 61.2442L144.253 61.7912C144.421 61.8226 144.594 61.8181 144.76 61.7778C144.926 61.7376 145.081 61.6626 145.216 61.5577L147.52 59.7569L148.977 58.6172L159.32 50.526L159.718 50.2158L162.159 48.3061L170.853 41.5079L177.138 36.5933C177.234 36.5187 177.344 36.4653 177.462 36.4367C177.495 36.4286 177.528 36.4231 177.562 36.4202C177.591 36.4149 177.621 36.412 177.651 36.4117C177.751 36.4107 177.851 36.4271 177.946 36.4599C178.081 36.5072 178.203 36.5876 178.3 36.6938C178.396 36.8001 178.465 36.9288 178.499 37.0683L188.634 78.9914C188.661 79.1012 188.666 79.2153 188.648 79.327C188.631 79.4387 188.592 79.5459 188.533 79.6424C188.474 79.7389 188.397 79.8228 188.306 79.8894C188.214 79.956 188.111 80.0039 188.001 80.0304L114.643 97.812C114.422 97.8652 114.188 97.8283 113.994 97.7093C113.8 97.5903 113.661 97.3989 113.608 97.1773L103.473 55.2542ZM132.402 59.5327L141.385 61.2442L144.253 61.7912C144.421 61.8226 144.594 61.8181 144.76 61.7778C144.926 61.7376 145.081 61.6626 145.216 61.5578L147.52 59.7569L146.712 59.9529L145.005 61.286C144.909 61.3609 144.798 61.4144 144.679 61.4432C144.56 61.4719 144.437 61.4752 144.317 61.4528L142.193 61.0482L133.211 59.3368L132.402 59.5327ZM132.402 59.5327L141.385 61.2442L144.253 61.7912C144.421 61.8226 144.594 61.8181 144.76 61.7778C144.926 61.7376 145.081 61.6626 145.216 61.5578L147.52 59.7569L146.712 59.9529L145.005 61.286C144.909 61.3609 144.798 61.4144 144.679 61.4432C144.56 61.4719 144.437 61.4752 144.317 61.4528L142.193 61.0482L133.211 59.3368L132.402 59.5327ZM132.402 59.5327L141.385 61.2442L144.253 61.7912C144.421 61.8226 144.594 61.8181 144.76 61.7778C144.926 61.7376 145.081 61.6626 145.216 61.5578L147.52 59.7569L146.712 59.9529L145.005 61.286C144.909 61.3609 144.798 61.4144 144.679 61.4432C144.56 61.4719 144.437 61.4752 144.317 61.4528L142.193 61.0482L133.211 59.3368L132.402 59.5327Z" fill="#3F3D56"/>
<path d="M168.962 72.1261C168.797 71.4391 168.911 70.7146 169.278 70.1114C169.646 69.5082 170.237 69.0757 170.923 68.9086L180.182 66.6644C180.867 66.5009 181.589 66.6159 182.189 66.9843C182.79 67.3527 183.22 67.9444 183.386 68.6299C183.552 69.3153 183.439 70.0386 183.074 70.6412C182.708 71.2439 182.118 71.6768 181.434 71.8451L172.176 74.0894C171.489 74.2549 170.766 74.1411 170.163 73.773C169.561 73.405 169.129 72.8127 168.962 72.1261Z" fill="#FFA000"/>
<path d="M66.6425 64.3404C67.91 64.3404 68.9374 63.3116 68.9374 62.0426C68.9374 60.7735 67.91 59.7447 66.6425 59.7447C65.3751 59.7447 64.3477 60.7735 64.3477 62.0426C64.3477 63.3116 65.3751 64.3404 66.6425 64.3404Z" fill="white"/>
</g>
<defs>
<clipPath id="clip0_42_785">
<rect width="189" height="162" fill="white"/>
</clipPath>
</defs>
</svg>
