<svg width="206" height="201" viewBox="0 0 206 201" fill="none" xmlns="http://www.w3.org/2000/svg">
<path d="M131.39 45.0569H120.429V138.627C120.429 140.095 120.14 141.549 119.579 142.905C119.018 144.262 118.196 145.494 117.159 146.532C116.123 147.57 114.892 148.394 113.537 148.956C112.183 149.517 110.731 149.807 109.265 149.807H25.4651V149.914C25.4651 151.382 25.7539 152.835 26.3149 154.192C26.876 155.548 27.6984 156.78 28.7351 157.819C29.7718 158.857 31.0026 159.68 32.3572 160.242C33.7117 160.804 35.1635 161.093 36.6297 161.093H131.39C132.856 161.093 134.308 160.804 135.663 160.242C137.017 159.68 138.248 158.857 139.285 157.819C140.321 156.78 141.144 155.548 141.705 154.192C142.266 152.835 142.555 151.382 142.555 149.914V56.2363C142.555 53.2713 141.378 50.4278 139.285 48.3313C137.191 46.2348 134.351 45.0569 131.39 45.0569Z" fill="#F2F2F2"/>
<path d="M183.349 193.755C183.543 193.764 183.735 193.713 183.899 193.608C184.063 193.504 184.192 193.352 184.267 193.173C184.341 192.994 184.36 192.795 184.318 192.605C184.277 192.415 184.178 192.242 184.036 192.11L183.971 191.852C183.979 191.831 183.988 191.811 183.996 191.79C184.192 191.328 184.52 190.933 184.938 190.657C185.357 190.38 185.847 190.234 186.349 190.236C186.85 190.238 187.34 190.388 187.756 190.667C188.173 190.947 188.497 191.344 188.689 191.807C189.457 193.658 190.434 195.513 190.675 197.47C190.781 198.335 190.736 199.212 190.543 200.062C192.345 196.124 193.281 191.844 193.287 187.513C193.288 186.426 193.227 185.34 193.107 184.259C193.007 183.374 192.869 182.494 192.692 181.622C191.725 176.885 189.651 172.445 186.638 168.667C185.18 167.871 184.001 166.646 183.26 165.158C182.991 164.623 182.801 164.052 182.696 163.462C182.861 163.484 183.316 160.976 183.192 160.822C183.422 160.473 183.832 160.3 184.082 159.96C185.327 158.27 187.042 158.565 187.938 160.862C189.851 161.829 189.869 163.432 188.696 164.974C187.949 165.955 187.846 167.282 187.191 168.333C187.258 168.419 187.329 168.503 187.396 168.589C188.628 170.176 189.702 171.879 190.602 173.676C190.384 171.663 190.645 169.628 191.365 167.736C192.095 165.973 193.463 164.488 194.667 162.964C194.986 162.555 195.418 162.249 195.911 162.086C196.403 161.923 196.932 161.909 197.432 162.047C197.931 162.185 198.379 162.469 198.718 162.861C199.057 163.254 199.272 163.738 199.336 164.253C199.339 164.276 199.341 164.298 199.343 164.321C199.164 164.422 198.989 164.529 198.818 164.643C198.603 164.787 198.436 164.992 198.339 165.233C198.243 165.473 198.221 165.738 198.277 165.991C198.333 166.244 198.464 166.474 198.653 166.651C198.842 166.829 199.08 166.945 199.336 166.984L199.362 166.988C199.298 167.634 199.186 168.274 199.025 168.902C200.57 174.887 197.234 177.066 192.47 177.164C192.365 177.218 192.263 177.272 192.158 177.323C193.062 179.89 193.63 182.564 193.846 185.277C193.968 186.878 193.961 188.486 193.824 190.086L193.832 190.029C194.177 188.25 195.125 186.645 196.515 185.485C198.579 183.787 201.496 183.161 203.724 181.796C203.96 181.644 204.236 181.563 204.517 181.562C204.798 181.562 205.074 181.642 205.311 181.793C205.549 181.944 205.738 182.159 205.857 182.415C205.976 182.67 206.02 182.954 205.983 183.233L205.974 183.293C205.642 183.428 205.318 183.584 205.006 183.76C204.827 183.861 204.652 183.968 204.48 184.082C204.265 184.226 204.098 184.431 204.002 184.672C203.905 184.913 203.883 185.177 203.939 185.43C203.995 185.683 204.126 185.913 204.315 186.091C204.504 186.268 204.742 186.384 204.998 186.423L205.024 186.427C205.043 186.43 205.06 186.433 205.078 186.435C204.511 187.792 203.715 189.04 202.724 190.126C201.758 195.35 197.608 195.846 193.169 194.324H193.166C192.679 196.444 191.973 198.507 191.06 200.48H183.538C183.511 200.396 183.486 200.31 183.462 200.226C184.158 200.27 184.857 200.229 185.544 200.102C184.985 199.416 184.427 198.725 183.869 198.04C183.857 198.027 183.845 198.013 183.834 197.999C183.551 197.648 183.265 197.3 182.982 196.949L182.982 196.948C182.967 195.872 183.09 194.799 183.349 193.755L183.349 193.755Z" fill="#F2F2F2"/>
<path d="M100.493 32.3288C100.767 32.7454 101.129 33.0974 101.553 33.3603C101.977 33.6232 102.453 33.7908 102.948 33.8514C103.443 33.9121 103.945 33.8644 104.419 33.7116C104.894 33.5588 105.33 33.3046 105.697 32.9666L121.337 40.0321L124.352 36.1808L105.715 27.925C105.101 27.3489 104.297 27.0184 103.456 26.9962C102.614 26.974 101.794 27.2615 101.15 27.8043C100.507 28.3471 100.084 29.1075 99.9631 29.9414C99.8419 30.7753 100.03 31.6247 100.493 32.3288H100.493Z" fill="#A0616A"/>
<path d="M167.613 36.7345L169.164 45.5363C169.237 45.9469 169.223 46.3682 169.123 46.773C169.023 47.1778 168.84 47.5572 168.585 47.8869C168.33 48.2167 168.009 48.4893 167.643 48.6875C167.276 48.8857 166.872 49.0049 166.457 49.0376L140.099 51.1131L109.117 37.2286L112.817 30.1946L139.713 38.723L167.613 36.7345Z" fill="#FFA000"/>
<path d="M105.925 30.4265H11.1646C4.99855 30.4265 0 35.4317 0 41.6059V135.283C0 141.457 4.99855 146.463 11.1646 146.463H105.925C112.091 146.463 117.09 141.457 117.09 135.283V41.6059C117.09 35.4317 112.091 30.4265 105.925 30.4265Z" fill="#F2F2F2"/>
<path d="M11.1647 32.7256C10.0001 32.7256 8.84684 32.9552 7.77085 33.4015C6.69487 33.8478 5.71721 34.5019 4.89368 35.3265C4.07016 36.1511 3.4169 37.1301 2.97121 38.2075C2.52553 39.2849 2.29614 40.4397 2.29614 41.6058V135.283C2.29614 137.638 3.2305 139.897 4.89368 141.563C6.55686 143.228 8.81262 144.164 11.1647 144.164H71.6431C77.3097 144.164 82.9208 143.046 88.156 140.875C93.3913 138.703 98.1481 135.521 102.155 131.508C106.162 127.496 109.34 122.733 111.509 117.491C113.677 112.249 114.793 106.63 114.793 100.956V41.6058C114.793 40.4397 114.564 39.2849 114.118 38.2075C113.673 37.1301 113.019 36.1511 112.196 35.3265C111.372 34.5019 110.395 33.8478 109.319 33.4015C108.243 32.9552 107.09 32.7256 105.925 32.7256H11.1647Z" fill="white"/>
<path d="M85.0348 61.1551H31.8477C31.3597 61.1551 30.8916 60.9609 30.5465 60.6154C30.2014 60.2698 30.0076 59.8011 30.0076 59.3125C30.0076 58.8238 30.2014 58.3551 30.5465 58.0095C30.8916 57.664 31.3597 57.4698 31.8477 57.4698H85.0348C85.5228 57.4698 85.9909 57.664 86.336 58.0095C86.681 58.3551 86.8749 58.8238 86.8749 59.3125C86.8749 59.8011 86.681 60.2698 86.336 60.6154C85.9909 60.9609 85.5228 61.1551 85.0348 61.1551Z" fill="#F2F2F2"/>
<path d="M85.0348 100.448H31.8477C31.3597 100.448 30.8916 100.254 30.5465 99.9084C30.2014 99.5629 30.0076 99.0942 30.0076 98.6055C30.0076 98.1168 30.2014 97.6482 30.5465 97.3026C30.8916 96.957 31.3597 96.7629 31.8477 96.7629H85.0348C85.5228 96.7629 85.9909 96.957 86.336 97.3026C86.681 97.6482 86.8749 98.1168 86.8749 98.6055C86.8749 99.0942 86.681 99.5629 86.336 99.9084C85.9909 100.254 85.5228 100.448 85.0348 100.448Z" fill="#F2F2F2"/>
<path d="M106.633 80.8145H10.2496C9.76155 80.8145 9.2935 80.6204 8.9484 80.2748C8.6033 79.9292 8.40942 79.4606 8.40942 78.9719C8.40942 78.4832 8.6033 78.0145 8.9484 77.669C9.2935 77.3234 9.76155 77.1293 10.2496 77.1293H106.633C107.121 77.1293 107.589 77.3234 107.934 77.669C108.279 78.0145 108.473 78.4832 108.473 78.9719C108.473 79.4606 108.279 79.9292 107.934 80.2748C107.589 80.6204 107.121 80.8145 106.633 80.8145Z" fill="#F2F2F2"/>
<path d="M164.283 75.5292L154.682 96.0118L191.617 92.266L183.907 72.6031L164.283 75.5292Z" fill="#A0616A"/>
<path d="M172.87 193.255L169.368 193.225L167.818 179.385L172.987 179.428L172.87 193.255Z" fill="#A0616A"/>
<path d="M161.653 198.831C161.65 199.247 161.812 199.647 162.103 199.943C162.394 200.24 162.79 200.408 163.205 200.412L170.168 200.471L171.387 197.997L171.835 200.483L174.462 200.507L173.798 191.638L172.884 191.577L169.156 191.32L167.953 191.239L167.932 193.749L162.339 197.547C162.13 197.69 161.958 197.881 161.838 198.104C161.719 198.328 161.655 198.577 161.653 198.831Z" fill="#2F2E41"/>
<path d="M134.115 193.271L130.777 192.212L133.356 178.526L138.284 180.088L134.115 193.271Z" fill="#A0616A"/>
<path d="M121.757 195.301C121.632 195.697 121.67 196.127 121.861 196.496C122.052 196.865 122.381 197.143 122.777 197.269L129.415 199.373L131.306 197.367L131.005 199.875L133.509 200.671L135.477 191.998L134.621 191.671L131.133 190.329L130.007 189.898L129.251 192.29L122.79 194.275C122.548 194.35 122.327 194.482 122.147 194.661C121.968 194.839 121.834 195.059 121.757 195.301Z" fill="#2F2E41"/>
<path d="M189.935 86.506L156.352 92.6677C156.352 92.6677 150.965 96.7024 152.406 98.1473C153.847 99.5922 154.07 99.3684 153.124 100.316C152.177 101.264 150.13 102.531 150.11 103.361C150.09 104.19 135.061 141.393 135.061 141.393C135.061 141.393 136.731 140.557 135.479 141.811C134.226 143.065 134.226 144.102 134.226 144.102L128.382 183.613L137.873 184.172L147.168 148.151L167.898 114.499C167.898 114.499 169.955 144.508 170.042 146.504C170.128 148.5 171.38 145.991 170.128 148.5C168.875 151.008 168.04 149.336 168.875 151.008C169.71 152.68 165.868 186.72 165.868 186.72H174.531L193.112 116.164C193.112 116.164 199.723 95.9923 189.935 86.506Z" fill="#2F2E41"/>
<path d="M180.042 30.0695L166.589 28.6698L163.104 33.2008L159.044 35.3662C157.325 36.2825 155.907 37.6751 154.958 39.3773C154.01 41.0795 153.571 43.0193 153.694 44.9647L158.439 72.6032C158.439 72.6032 154.431 81.6402 157.187 83.8895C159.942 86.1388 155.056 91.7093 160.944 88.9056C166.831 86.102 192.253 89.3237 192.253 89.3237L186.826 73.8572L190.88 58.6594L191.326 45.9162C191.41 43.5349 190.704 41.1929 189.319 39.2552C187.934 37.3176 185.948 35.8931 183.671 35.2038L183.104 35.0323L180.042 30.0695Z" fill="#FFA000"/>
<path d="M198.562 19.7428C198.65 23.5396 197.233 27.216 195.197 30.4451C194.593 28.56 193.505 26.8443 192.371 25.2087C192.943 28.7469 192.334 32.375 190.639 35.5317C190.579 35.5745 190.517 35.6143 190.453 35.6508C188.794 36.6503 186.69 37.0551 184.895 36.3333C188.604 32.3301 189.076 25.6974 185.967 21.2072C185.086 19.9331 183.948 18.8063 183.402 17.3563C182.542 15.0428 183.369 12.4956 183.891 10.0836C184.379 7.83867 184.465 5.16723 182.961 3.52201C183.121 3.29209 183.34 3.10907 183.595 2.99172C183.849 2.87436 184.13 2.82688 184.409 2.85413C185.337 2.9853 186.012 3.79242 186.442 4.62371C186.872 5.45497 187.155 6.37629 187.754 7.0943C188.864 8.43821 190.753 8.75594 192.346 9.46421C196.202 11.1842 198.47 15.518 198.562 19.7428Z" fill="#2F2E41"/>
<path d="M99.2097 200.503C99.2095 200.568 99.2222 200.633 99.2471 200.693C99.272 200.754 99.3086 200.808 99.3548 200.855C99.401 200.901 99.4558 200.938 99.5162 200.963C99.5765 200.987 99.6412 201 99.7065 201H205.445C205.577 201 205.703 200.948 205.796 200.854C205.889 200.761 205.942 200.634 205.942 200.503C205.942 200.371 205.889 200.244 205.796 200.151C205.703 200.058 205.577 200.005 205.445 200.005H99.7065C99.6412 200.005 99.5765 200.018 99.5162 200.043C99.4558 200.068 99.401 200.104 99.3548 200.15C99.3086 200.197 99.272 200.252 99.2471 200.312C99.2222 200.372 99.2095 200.437 99.2097 200.503Z" fill="#CCCCCC"/>
<path d="M199.395 107.741C201.47 107.741 203.152 106.057 203.152 103.979C203.152 101.902 201.47 100.217 199.395 100.217C197.32 100.217 195.637 101.902 195.637 103.979C195.637 106.057 197.32 107.741 199.395 107.741Z" fill="#FFA000"/>
<path d="M166.101 17.5719C166.322 16.7996 164.803 21.5206 165.536 21.6058C168.874 21.9893 173.457 23.9856 175.782 24.9169C175.886 24.9048 175.991 24.8926 176.093 24.8774C176.342 24.85 176.585 24.8104 176.826 24.7648C182.24 23.7391 184.321 15.4117 184.321 15.3356C184.321 14.9613 183.424 4.67927 182.011 4.52711C181.639 4.48677 181.266 4.46645 180.893 4.46624H177.385C176.659 4.30962 175.924 4.20285 175.183 4.14666H175.177C168.116 3.60794 162.548 7.91764 163.068 13.1618C163.071 13.1678 163.077 13.1739 163.081 13.18C163.231 13.4052 163.364 13.6183 163.481 13.8222C163.595 14.014 163.69 14.1966 163.773 14.37C164.417 15.7092 162.763 17.3943 163.86 17.7089C165.319 18.1272 160.022 31.8768 165.797 31.8768C162.988 32.6765 165.493 19.7024 166.101 17.5719Z" fill="#2F2E41"/>
<path d="M172.405 25.6395C176.992 25.6395 180.71 21.9165 180.71 17.3238C180.71 12.7312 176.992 9.00809 172.405 9.00809C167.819 9.00809 164.1 12.7312 164.1 17.3238C164.1 21.9165 167.819 25.6395 172.405 25.6395Z" fill="#A0616A"/>
<path d="M163.068 13.6152C163.207 13.6883 163.342 13.7552 163.481 13.8222C163.626 13.8922 163.77 13.9622 163.915 14.0261C166.696 15.2892 168.959 15.4292 170.333 13.6152C170.37 12.6607 170.584 11.7215 170.964 10.8455C170.897 11.8244 171.155 12.7981 171.697 13.6152H174.463C177.311 15.5083 178.774 15.7061 176.797 21.9211C176.246 23.6529 174.054 33.7303 174.916 35.2247C175.165 35.1973 177.819 24.1595 178.059 24.1139C183.473 23.0882 186.913 14.157 186.473 13.6517C186.475 12.215 186.145 10.7972 185.509 9.50942C184.704 7.87783 183.45 6.51116 181.894 5.57102C180.966 5.1207 179.999 4.75697 179.005 4.48446C178.98 4.47836 178.959 4.47227 178.934 4.4662C178.629 4.38401 178.318 4.30793 178.007 4.24401C177.365 4.10815 176.715 4.00958 176.061 3.94879C176.015 3.94574 175.968 3.94269 175.925 3.94269C175.664 3.9433 175.408 4.0137 175.183 4.14662C175.18 4.14662 175.18 4.14965 175.177 4.14965C175.016 4.24367 174.876 4.36887 174.764 4.51792C174.568 4.7687 174.461 5.07865 174.463 5.39752H171.383C171.269 5.39752 171.155 5.40056 171.041 5.40664C168.986 5.47697 167.031 6.31277 165.558 7.75048C164.086 9.18819 163.202 11.1243 163.08 13.18C163.071 13.3261 163.068 13.4691 163.068 13.6152Z" fill="#2F2E41"/>
<path d="M181.226 10.9569C184.248 10.9569 186.697 8.50412 186.697 5.47845C186.697 2.45279 184.248 0 181.226 0C178.204 0 175.755 2.45279 175.755 5.47845C175.755 8.50412 178.204 10.9569 181.226 10.9569Z" fill="#2F2E41"/>
<path d="M199.437 105.531C199.704 105.109 199.876 104.634 199.942 104.14C200.008 103.645 199.966 103.141 199.818 102.664C199.67 102.188 199.421 101.749 199.087 101.378C198.754 101.007 198.344 100.713 197.885 100.516L197.912 83.3353L193.168 82.1594L193.285 102.566C193.012 103.363 193.04 104.232 193.365 105.01C193.689 105.787 194.287 106.419 195.046 106.784C195.804 107.15 196.67 107.224 197.479 106.993C198.289 106.762 198.985 106.242 199.437 105.531V105.531Z" fill="#A0616A"/>
<path d="M175.944 42.4186L183.326 37.3948C183.671 37.1604 184.06 37.0007 184.47 36.926C184.88 36.8513 185.3 36.8632 185.705 36.9609C186.11 37.0586 186.49 37.24 186.821 37.4935C187.151 37.7469 187.425 38.0668 187.625 38.4326L200.318 61.6567L200.366 95.6454L192.442 95.1481L189.189 67.0872L175.944 42.4186Z" fill="#FFA000"/>
<path d="M119.245 119.5H40.3456C38.6295 119.5 36.9837 120.183 35.7702 121.398C34.5567 122.613 33.875 124.261 33.875 125.979C33.875 127.698 34.5567 129.346 35.7702 130.561C36.9837 131.776 38.6295 132.458 40.3456 132.458H119.245C120.962 132.458 122.607 131.776 123.821 130.561C125.034 129.346 125.716 127.698 125.716 125.979C125.716 124.261 125.034 122.613 123.821 121.398C122.607 120.183 120.962 119.5 119.245 119.5Z" fill="white"/>
<path d="M119.245 132.876H40.3456C38.5188 132.876 36.7668 132.15 35.475 130.856C34.1832 129.563 33.4575 127.808 33.4575 125.979C33.4575 124.15 34.1832 122.396 35.475 121.102C36.7668 119.809 38.5188 119.082 40.3456 119.082H119.245C121.072 119.082 122.824 119.809 124.116 121.102C125.408 122.396 126.133 124.15 126.133 125.979C126.133 127.808 125.408 129.563 124.116 130.856C122.824 132.15 121.072 132.876 119.245 132.876ZM40.3456 119.918C38.7402 119.918 37.2006 120.557 36.0654 121.693C34.9302 122.83 34.2924 124.372 34.2924 125.979C34.2924 127.587 34.9302 129.128 36.0654 130.265C37.2006 131.402 38.7402 132.04 40.3456 132.04H119.245C120.851 132.04 122.39 131.402 123.526 130.265C124.661 129.128 125.299 127.587 125.299 125.979C125.299 124.372 124.661 122.83 123.526 121.693C122.39 120.557 120.851 119.918 119.245 119.918H40.3456Z" fill="#FFA000"/>
<path d="M123.898 147.775H89.0789C88.5909 147.775 88.1228 147.581 87.7777 147.236C87.4326 146.89 87.2388 146.422 87.2388 145.933C87.2388 145.444 87.4326 144.976 87.7777 144.63C88.1228 144.284 88.5909 144.09 89.0789 144.09H123.898C124.386 144.09 124.854 144.284 125.199 144.63C125.544 144.976 125.738 145.444 125.738 145.933C125.738 146.422 125.544 146.89 125.199 147.236C124.854 147.581 124.386 147.775 123.898 147.775Z" fill="#FFA000"/>
</svg>
